<svg width="21" height="20" viewBox="0 0 21 20" fill="none" xmlns="http://www.w3.org/2000/svg">
<path d="M6.16667 9.16667L9.5 1.66667C10.163 1.66667 10.7989 1.93006 11.2678 2.3989C11.7366 2.86774 12 3.50363 12 4.16667V7.5H16.7167C16.9583 7.49726 17.1976 7.54709 17.418 7.64601C17.6384 7.74494 17.8347 7.89061 17.9932 8.07293C18.1518 8.25525 18.2688 8.46985 18.3361 8.70188C18.4035 8.9339 18.4196 9.1778 18.3833 9.41667L17.2333 16.9167C17.1731 17.3141 16.9712 17.6763 16.6649 17.9367C16.3586 18.197 15.9686 18.3379 15.5667 18.3333H6.16667M6.16667 9.16667V18.3333M6.16667 9.16667H3.66667C3.22464 9.16667 2.80072 9.34226 2.48816 9.65482C2.17559 9.96738 2 10.3913 2 10.8333V16.6667C2 17.1087 2.17559 17.5326 2.48816 17.8452C2.80072 18.1577 3.22464 18.3333 3.66667 18.3333H6.16667" stroke="white" stroke-width="2" stroke-linecap="round" stroke-linejoin="round"/>
</svg>
