<svg width="40" height="40" viewBox="0 0 40 40" fill="none" xmlns="http://www.w3.org/2000/svg">
<circle cx="20" cy="20" r="20" fill="#86D302"/>
<path d="M27.1126 8.04962L27.0263 7.14282L26.1636 7.4307C24.6851 7.94494 23.1063 8.10275 21.5555 7.89129C19.9258 7.63812 18.2578 7.86309 16.7532 8.53901C15.9556 8.87902 15.2556 9.41336 14.7169 10.0934C14.1783 10.7734 13.8181 11.5775 13.6692 12.4325C13.476 13.537 13.5727 14.6727 13.9495 15.7286C14.1922 15.1803 14.4758 14.651 14.7978 14.1453C15.5284 13.0693 16.5406 12.2153 17.7237 11.6768C18.8635 11.1559 20.1093 10.9094 21.3614 10.9571C20.1695 11.1396 19.0285 11.5685 18.0113 12.2166C17.5206 12.5252 17.0713 12.8952 16.6742 13.3177C16.2943 13.74 15.9594 14.2006 15.6749 14.6923C15.1404 15.72 14.7601 16.821 14.5462 17.9597C14.3157 19.102 14.1905 20.2632 14.1724 21.4285H15.6102C15.6778 20.3834 15.8195 19.3445 16.0343 18.3195C17.0318 18.8587 18.1503 19.1337 19.2838 19.1184C20.3409 19.1176 21.3871 18.9047 22.3606 18.4922C27.8315 16.1533 27.1126 8.37348 27.1126 8.04962Z" fill="white"/>
<path d="M10.7148 32.0357V24.0357H13.9263C14.7567 24.0357 15.3891 24.23 15.8234 24.6186C16.2653 24.9995 16.4863 25.4909 16.4863 26.0928C16.4863 26.5957 16.3491 26.9995 16.0748 27.3043C15.8082 27.6014 15.4806 27.8033 15.092 27.91C15.5491 28.0014 15.9263 28.23 16.2234 28.5957C16.5206 28.9538 16.6691 29.3728 16.6691 29.8528C16.6691 30.4852 16.4406 31.0071 15.9834 31.4186C15.5263 31.83 14.8787 32.0357 14.0406 32.0357H10.7148ZM12.1777 27.3957H13.7091C14.1206 27.3957 14.4367 27.3005 14.6577 27.11C14.8787 26.9195 14.9891 26.649 14.9891 26.2986C14.9891 25.9633 14.8787 25.7005 14.6577 25.51C14.4444 25.3119 14.1206 25.2128 13.6863 25.2128H12.1777V27.3957ZM12.1777 30.8471H13.812C14.2463 30.8471 14.5815 30.7481 14.8177 30.55C15.0615 30.3443 15.1834 30.0586 15.1834 29.6928C15.1834 29.3195 15.0577 29.0262 14.8063 28.8128C14.5548 28.5995 14.2158 28.4928 13.7891 28.4928H12.1777V30.8471Z" fill="white"/>
<path d="M17.9247 32.0357V24.0357H19.3875V32.0357H17.9247Z" fill="white"/>
<path d="M24.6866 32.1728C23.8866 32.1728 23.1857 31.9976 22.5838 31.6471C21.9895 31.2967 21.5209 30.8128 21.1781 30.1957C20.8428 29.5709 20.6752 28.8509 20.6752 28.0357C20.6752 27.2205 20.8428 26.5043 21.1781 25.8871C21.5209 25.2624 21.9895 24.7748 22.5838 24.4243C23.1857 24.0738 23.8866 23.8986 24.6866 23.8986C25.479 23.8986 26.1762 24.0738 26.7781 24.4243C27.38 24.7748 27.8485 25.2624 28.1838 25.8871C28.519 26.5043 28.6866 27.2205 28.6866 28.0357C28.6866 28.8509 28.519 29.5709 28.1838 30.1957C27.8485 30.8128 27.38 31.2967 26.7781 31.6471C26.1762 31.9976 25.479 32.1728 24.6866 32.1728ZM24.6866 30.8586C25.4485 30.8586 26.0542 30.6071 26.5038 30.1043C26.9609 29.6014 27.1895 28.9119 27.1895 28.0357C27.1895 27.1595 26.9609 26.47 26.5038 25.9671C26.0542 25.4643 25.4485 25.2128 24.6866 25.2128C23.9247 25.2128 23.3152 25.4643 22.8581 25.9671C22.4009 26.47 22.1723 27.1595 22.1723 28.0357C22.1723 28.9119 22.4009 29.6014 22.8581 30.1043C23.3152 30.6071 23.9247 30.8586 24.6866 30.8586Z" fill="white"/>
</svg>
