<svg width="35" height="24" viewBox="0 0 35 24" fill="none" xmlns="http://www.w3.org/2000/svg">
<g clip-path="url(#clip0_1601_704)">
<path d="M30.9176 24H3.9176C1.8176 24 0.167603 22.35 0.167603 20.25V3.75C0.167603 1.65 1.8176 0 3.9176 0H30.9176C33.0176 0 34.6676 1.65 34.6676 3.75V20.25C34.6676 22.35 33.0176 24 30.9176 24ZM3.9176 1.5C2.7176 1.5 1.6676 2.55 1.6676 3.75V20.25C1.6676 21.45 2.7176 22.5 3.9176 22.5H30.9176C32.1176 22.5 33.1676 21.45 33.1676 20.25V3.75C33.1676 2.55 32.1176 1.5 30.9176 1.5H3.9176Z" fill="#DDDDDD"/>
<path d="M4.8175 9.45V4.5H6.61751C7.06751 4.5 7.36751 4.5 7.51751 4.65C7.66751 4.8 7.9675 4.95 7.9675 5.1C8.1175 5.25 8.11751 5.55 8.11751 5.7C8.11751 5.85 8.1175 6.15 7.9675 6.3C7.9675 6.6 7.81751 6.75 7.51751 6.75C7.81751 6.9 8.11751 7.05 8.26751 7.2C8.41751 7.5 8.41751 7.65 8.41751 7.95C8.41751 8.25 8.41751 8.4 8.26751 8.55C8.26751 8.85 8.1175 9 7.9675 9.15C7.8175 9.15 7.66751 9.3 7.36751 9.3C7.06751 9.3 6.91751 9.45 6.61751 9.45H4.8175ZM5.41751 6.6H6.4675C6.7675 6.6 6.9175 6.6 7.0675 6.6C7.2175 6.6 7.36751 6.45 7.36751 6.3C7.51751 6.15 7.51751 6 7.51751 5.85C7.51751 5.7 7.51751 5.55 7.36751 5.4C7.36751 5.25 7.2175 5.25 7.0675 5.1C6.9175 5.1 6.6175 5.1 6.3175 5.1H5.41751V6.6ZM5.41751 8.85H6.61751C6.76751 8.85 6.9175 8.85 7.0675 8.85C7.2175 8.85 7.36751 8.85 7.36751 8.7C7.36751 8.55 7.66751 8.55 7.66751 8.4C7.66751 8.25 7.8175 8.1 7.8175 7.95C7.8175 7.8 7.66751 7.65 7.66751 7.5C7.66751 7.35 7.3675 7.35 7.2175 7.2C7.0675 7.05 6.9175 7.2 6.4675 7.2H5.41751V8.85ZM11.5675 9C11.4175 9.15 11.1175 9.3 10.9675 9.45C10.8175 9.6 10.5175 9.45 10.2175 9.45C9.7675 9.45 9.4675 9.3 9.3175 9.15C9.1675 9 9.01751 8.85 9.01751 8.55C9.01751 8.4 9.01751 8.25 9.16751 8.1C9.3175 7.95 9.3175 7.8 9.4675 7.8C9.6175 7.8 9.76751 7.5 9.91751 7.5C10.0675 7.5 10.2175 7.5 10.5175 7.35C10.9675 7.35 11.4175 7.2 11.5675 7.2C11.5675 7.05 11.5675 7.05 11.5675 7.05C11.5675 6.75 11.5675 6.6 11.4175 6.6C11.2675 6.3 10.9675 6.3 10.6675 6.3C10.3675 6.3 10.2175 6.3 10.0675 6.45C9.9175 6.6 9.76751 6.75 9.76751 6.9H9.16751C9.16751 6.6 9.3175 6.45 9.4675 6.3C9.6175 6.15 9.76751 6 9.91751 5.85C10.2175 5.7 10.3675 5.7 10.6675 5.7C10.9675 5.7 11.2675 5.7 11.4175 5.85C11.7175 6 11.8675 6 11.8675 6.15C12.0175 6.3 12.0175 6.45 12.1675 6.6C12.1675 6.75 12.1675 6.9 12.1675 7.2V7.95C12.1675 8.55 12.1675 8.85 12.1675 9C12.1675 9.15 12.3175 9.3 12.3175 9.45H11.7175C11.7175 9.3 11.5675 9.15 11.5675 9ZM11.5675 7.65C11.2675 7.8 10.9675 7.8 10.5175 7.8C10.2175 7.8 10.0675 7.95 9.91751 7.95C9.76751 7.95 9.91751 8.1 9.76751 8.25C9.61751 8.4 9.76751 8.4 9.76751 8.4C9.76751 8.55 9.76751 8.7 9.91751 8.85C10.0675 9 10.2175 9 10.3675 9C10.6675 9 10.8175 9 11.1175 8.85C11.2675 8.7 11.4175 8.55 11.5675 8.4C11.5675 8.25 11.7175 8.1 11.7175 7.8V7.65H11.5675ZM13.0675 9.45V5.85H13.6675V6.3C13.9675 6 14.2675 5.85 14.7175 5.85C14.8675 5.85 15.1675 5.85 15.3175 6C15.4675 6.15 15.6175 6.15 15.7675 6.3C15.9175 6.45 15.9175 6.6 15.9175 6.75C15.9175 6.9 15.9175 7.05 15.9175 7.35V9.6H15.3175V7.2C15.3175 6.9 15.3175 6.75 15.3175 6.6C15.3175 6.45 15.1675 6.45 15.0175 6.45C14.8675 6.45 14.7175 6.3 14.5675 6.3C14.2675 6.3 14.1175 6.45 13.9675 6.6C13.8175 6.75 13.6675 7.05 13.6675 7.5V9.45H13.0675ZM16.9675 9.45V4.5H17.5675V7.35L19.0675 5.85H19.6675L18.3175 7.2L19.8175 9.45H19.0675L17.8675 7.65L17.4175 8.1V9.45H16.9675Z" fill="#4A4A4A"/>
<path d="M5.11758 12.9004H29.4176C29.7176 12.9004 30.0176 13.2004 30.0176 13.5004V14.8504C30.0176 15.1504 29.7176 15.4504 29.4176 15.4504H5.11758C4.81758 15.4504 4.51758 15.1504 4.51758 14.8504V13.5004C4.51758 13.2004 4.66758 12.9004 5.11758 12.9004Z" fill="#D8D8D8"/>
<path d="M5.11746 17.1006H29.4175C29.7175 17.1006 30.0175 17.4006 30.0175 17.7006V19.0506C30.0175 19.3506 29.7175 19.6506 29.4175 19.6506H5.11746C4.81746 19.6506 4.51746 19.3506 4.51746 19.0506V17.7006C4.51746 17.4006 4.66746 17.1006 5.11746 17.1006Z" fill="#D8D8D8"/>
</g>
<defs>
<clipPath id="clip0_1601_704">
<rect width="34.5" height="24" fill="white" transform="translate(0.167603)"/>
</clipPath>
</defs>
</svg>
