<svg width="31" height="18" viewBox="0 0 31 18" fill="none" xmlns="http://www.w3.org/2000/svg">
<g clip-path="url(#clip0_1601_721)">
<path d="M11.2218 16.0814V1.91895H19.2624V16.0814H11.2218Z" fill="#FF5F00"/>
<path d="M11.7698 9.04574C11.7698 6.30462 13.049 3.65488 15.2419 2.01021C11.4957 -0.913652 6.10487 -0.456799 2.9069 3.01528C-0.29107 6.48736 -0.29107 11.7869 2.9069 15.2589C6.19624 18.731 11.4957 19.0965 15.2419 16.264C13.049 14.4366 11.7698 11.7869 11.7698 9.04574Z" fill="#EB001B"/>
<path d="M30.044 9.04512C30.044 12.5172 28.0339 15.7152 24.9273 17.1771C21.8207 18.639 18.0745 18.2735 15.3334 16.172C17.5263 14.436 18.8055 11.8776 18.8055 9.04512C18.8055 6.30401 17.5263 3.65426 15.3334 2.00959C18.0745 -0.091933 21.8207 -0.548786 24.9273 1.00451C28.0339 2.37507 30.044 5.57304 30.044 9.04512Z" fill="#F79E1B"/>
<path d="M29.77 14.7103V14.1621H29.6786L29.4959 14.619L29.4045 14.2535H29.3131V14.8017H29.4045V14.4362L29.4959 14.8017H29.5872L29.6786 14.4362L29.77 14.7103ZM29.1304 14.7103V14.2535H29.2217V14.1621H28.9476V14.2535H29.039L29.1304 14.7103Z" fill="#F79E1B"/>
</g>
<defs>
<clipPath id="clip0_1601_721">
<rect width="29.6041" height="18" fill="white" transform="translate(0.439941)"/>
</clipPath>
</defs>
</svg>
