<svg width="60" height="18" viewBox="0 0 60 18" fill="none" xmlns="http://www.w3.org/2000/svg">
<g clip-path="url(#clip0_1601_715)">
<path d="M55.5929 0.319355H51.9198C50.7821 0.319355 49.9305 0.630602 49.4308 1.76622L42.3718 17.7468H47.3628C47.3628 17.7468 48.1791 15.5984 48.3637 15.1267C48.9093 15.1267 53.7577 15.1342 54.4509 15.1342C54.5933 15.7445 55.0292 17.7472 55.0292 17.7472L59.44 17.7468L55.5929 0.319355ZM49.7315 11.5595C50.1247 10.5547 51.6252 6.68515 51.6252 6.68515C51.5974 6.73126 52.0153 5.67547 52.2555 5.02078L52.5771 6.5238C52.5771 6.5238 53.4869 10.6869 53.6772 11.5598L49.7315 11.5595Z" fill="#004686"/>
<path d="M43.4042 0.732331C42.4626 0.37838 40.9869 7.1056e-08 39.144 7.1056e-08C34.4476 -0.00047338 31.139 2.36507 31.111 5.75479C31.0846 8.26038 33.4729 9.65829 35.2759 10.4924C37.126 11.3465 37.748 11.8921 37.7391 12.6555C37.7275 13.8238 36.2617 14.3583 34.8955 14.3583C32.9931 14.3581 31.9824 14.0941 30.4214 13.4431L29.8089 13.1654L29.1418 17.0692C30.2522 17.5562 32.305 17.978 34.4364 18C39.4329 17.9997 42.6764 15.6619 42.7132 12.0423C42.7312 10.0583 41.4648 8.5489 38.7227 7.30429C37.0614 6.49716 36.0437 5.95932 36.0545 5.14252C36.0546 4.41748 36.9157 3.64253 38.7765 3.64253C40.331 3.61782 41.4567 3.95728 42.3339 4.31057L42.76 4.51141L43.4042 0.732331Z" fill="#004686"/>
<path d="M21.4139 17.7415L24.3858 0.302734H29.139L26.1652 17.7415H21.4139Z" fill="#004686"/>
<path d="M17.4275 0.31543L12.7741 12.2073L12.2782 9.79091C11.412 7.00475 8.71268 3.98697 5.69519 2.47593L9.95028 17.7263L14.9793 17.7203L22.4623 0.315438L17.4275 0.31543Z" fill="#004686"/>
<path d="M8.45713 0.304707H0.79263L0.731934 0.667749C6.69476 2.11083 10.6403 5.59949 12.2782 9.79067L10.6115 1.77712C10.3238 0.672937 9.48925 0.343527 8.45713 0.304707Z" fill="#EF9B11"/>
</g>
<defs>
<clipPath id="clip0_1601_715">
<rect width="58.708" height="18" fill="white" transform="translate(0.731934)"/>
</clipPath>
</defs>
</svg>
