<svg width="40" height="24" viewBox="0 0 40 24" fill="none" xmlns="http://www.w3.org/2000/svg">
<g clip-path="url(#clip0_1601_710)">
<path d="M35.5012 4.23047H33.6825H25.2607H23.4419L22.2162 5.61432L18.2228 10.0822L16.9971 11.4661H15.1783H6.91476H5.09597L6.28214 10.0822L6.83568 9.41004L8.02184 8.02619H6.20306H3.90981H2.60504C1.61657 8.02619 0.786255 8.8565 0.786255 9.8845V13.443V13.7988C0.786255 14.8268 1.61657 15.6572 2.60504 15.6572H3.11904H22.2162H23.6001C24.5886 15.6572 25.9724 15.0245 26.6446 14.2733L29.8077 10.6753L35.5012 4.23047Z" fill="#005498"/>
<path d="M37.9131 0.0395387C38.9015 0.0395387 39.7318 0.869852 39.7318 1.89786V5.81219C39.7318 6.8402 38.9015 7.67051 37.9131 7.67051H36.9246H34.2755H32.4567L33.6824 6.28666L34.2755 5.6145L35.5012 4.23064H23.4419L16.9971 11.4267H5.01685L13.5967 1.7397L13.9131 1.38385C14.6248 0.632619 15.9691 0 16.9971 0H17.432L37.9131 0.0395387Z" fill="#FFD800"/>
<path d="M39.4155 23.763V23.2095C39.4155 23.1304 39.376 23.0909 39.2574 23.0909H38.9015C38.7829 23.0909 38.7038 23.0909 38.7038 23.0118C38.6643 22.9723 38.6643 22.8932 38.6643 22.735V20.6395H39.2574C39.2969 20.6395 39.3365 20.6395 39.376 20.5999C39.4155 20.5604 39.4155 20.5209 39.4155 20.4813V19.8882C39.4155 19.8487 39.4155 19.8092 39.376 19.7696C39.3365 19.7301 39.2969 19.7301 39.2574 19.7301H38.6643V18.9788C38.6643 18.9393 38.6643 18.8998 38.6248 18.8998C38.5852 18.8998 38.5457 18.8602 38.5457 18.8602L37.6758 19.0184C37.6363 19.0184 37.5968 19.0579 37.5572 19.0579C37.5177 19.0975 37.5177 19.137 37.5177 19.137V19.7301H36.9246C36.8851 19.7301 36.8455 19.7301 36.806 19.7696C36.7664 19.8092 36.7664 19.8487 36.7664 19.8882V20.3627C36.7664 20.4022 36.7664 20.4418 36.806 20.4418C36.8455 20.4813 36.8851 20.4813 36.9246 20.5209L37.5177 20.5999V22.6955C37.5177 22.9327 37.5572 23.17 37.5968 23.3281C37.6758 23.4863 37.7154 23.6049 37.834 23.7235C37.9526 23.8026 38.0712 23.8816 38.2294 23.9212C38.3875 23.9607 38.5852 23.9607 38.7829 23.9607C38.9015 23.9607 38.9806 23.9607 39.0597 23.9607C39.1388 23.9607 39.2574 23.9212 39.3365 23.9212C39.376 23.8816 39.4155 23.8421 39.4155 23.763ZM36.2129 23.684V23.0513C36.2129 23.0118 36.2129 22.9723 36.1734 22.9723C36.1338 22.9723 36.0943 22.9327 36.0943 22.9327C35.9757 22.9327 35.8175 22.9723 35.6989 22.9723C35.5803 22.9723 35.4221 22.9723 35.1849 22.9723C35.1058 22.9723 35.0267 22.9723 34.9477 22.9327C34.8686 22.8932 34.8291 22.8536 34.75 22.8141C34.6709 22.7746 34.6709 22.6559 34.6314 22.5769C34.5918 22.4978 34.5918 22.3396 34.5918 22.1815V21.5884C34.5918 21.4302 34.5918 21.2721 34.6314 21.193C34.6709 21.1139 34.7104 20.9953 34.75 20.9558C34.8291 20.8767 34.8686 20.8372 34.9477 20.8372C35.0267 20.7976 35.1058 20.7976 35.1849 20.7976C35.3826 20.7976 35.5803 20.7976 35.6989 20.7976C35.8175 20.7976 35.9757 20.7976 36.0943 20.8372C36.1338 20.8372 36.1734 20.8372 36.1734 20.7976C36.2129 20.7976 36.2129 20.7581 36.2129 20.7186V20.0859C36.2129 20.0069 36.2129 20.0069 36.1734 19.9673C36.1338 19.9673 36.0943 19.9278 36.0548 19.8882C35.9361 19.8487 35.8175 19.8487 35.6594 19.8092C35.5012 19.7696 35.3035 19.7696 35.0663 19.7696C34.5523 19.7696 34.1174 19.9278 33.801 20.2441C33.4847 20.5604 33.3266 20.9953 33.3266 21.6279V22.1419C33.3266 22.735 33.4847 23.2095 33.801 23.5258C34.1174 23.8421 34.5523 24.0003 35.0663 24.0003C35.264 24.0003 35.4617 24.0003 35.6594 23.9607C35.8175 23.9212 35.9757 23.9212 36.0548 23.8816C36.1338 23.8816 36.1338 23.8421 36.1734 23.8026C36.2129 23.8026 36.2129 23.7235 36.2129 23.684ZM31.4287 22.9327C31.3496 22.9723 31.231 23.0118 31.152 23.0513C31.0729 23.0909 30.9543 23.0909 30.8356 23.0909C30.6775 23.0909 30.5589 23.0909 30.4798 23.0118C30.4007 22.9723 30.3612 22.8932 30.3612 22.6955V22.6164C30.3612 22.5373 30.3612 22.4583 30.4007 22.3792C30.4007 22.3001 30.4798 22.2606 30.5193 22.221C30.5589 22.1815 30.6379 22.1419 30.717 22.1419C30.7961 22.1419 30.9147 22.1024 31.0333 22.1024H31.4287V22.9327ZM32.5753 21.1535C32.5753 20.8767 32.5358 20.6395 32.4567 20.4813C32.3777 20.2836 32.259 20.165 32.1009 20.0464C31.9427 19.9278 31.7846 19.8487 31.5473 19.8092C31.3496 19.7301 31.0729 19.7301 30.8356 19.7301C30.5984 19.7301 30.3612 19.7301 30.1239 19.7696C29.8867 19.8092 29.7286 19.8487 29.5704 19.8882C29.4913 19.9278 29.4518 19.9673 29.4518 20.0464V20.6395C29.4518 20.679 29.4518 20.7186 29.4913 20.7581C29.5309 20.7581 29.5704 20.7976 29.5704 20.7976H29.6099C29.689 20.7976 29.7286 20.7976 29.8076 20.7976C29.8867 20.7976 30.0053 20.7976 30.0844 20.7976C30.203 20.7976 30.3216 20.7976 30.4403 20.7976C30.5589 20.7976 30.6775 20.7976 30.7961 20.7976C30.9543 20.7976 31.1124 20.8372 31.1915 20.8767C31.2706 20.9558 31.3496 21.0744 31.3496 21.2721V21.5093H30.9543C30.3216 21.5093 29.8472 21.5884 29.5704 21.7861C29.2936 21.9838 29.1355 22.3001 29.1355 22.735V22.8141C29.1355 23.0513 29.175 23.249 29.2541 23.4072C29.3332 23.5653 29.4122 23.684 29.5309 23.8026C29.6495 23.8816 29.7681 23.9607 29.9263 24.0003C30.0844 24.0398 30.2426 24.0793 30.4007 24.0793C30.5984 24.0793 30.7961 24.0398 30.9543 24.0003C31.1124 23.9212 31.2706 23.8816 31.4287 23.763V23.8816C31.4287 23.9212 31.4287 23.9607 31.4683 24.0003C31.5078 24.0398 31.5473 24.0398 31.5869 24.0398H32.4172C32.4567 24.0398 32.4963 24.0398 32.5358 24.0003C32.5753 23.9607 32.5753 23.9212 32.5753 23.8816V21.1535ZM28.661 23.763V23.2095C28.661 23.1304 28.6215 23.0909 28.5029 23.0909H28.147C28.0284 23.0909 27.9493 23.0909 27.9493 23.0118C27.9098 22.9723 27.9098 22.8932 27.9098 22.735V20.6395H28.5029C28.5424 20.6395 28.5819 20.6395 28.6215 20.5999C28.661 20.5604 28.661 20.5209 28.661 20.4813V19.8882C28.661 19.8487 28.661 19.8092 28.6215 19.7696C28.5819 19.7301 28.5424 19.7301 28.5029 19.7301H27.9098V18.9788C27.9098 18.9393 27.9098 18.8998 27.8702 18.8998C27.8307 18.8998 27.7912 18.8602 27.7912 18.8602L26.9213 19.0184C26.8818 19.0184 26.8422 19.0579 26.8027 19.0579C26.7632 19.0975 26.7632 19.137 26.7632 19.137V19.7301H26.1305C26.091 19.7301 26.0515 19.7301 26.0119 19.7696C25.9724 19.8092 25.9724 19.8487 25.9724 19.8882V20.3627C25.9724 20.4022 25.9724 20.4418 26.0119 20.4418C26.0515 20.4813 26.091 20.4813 26.1305 20.5209L26.7236 20.5999V22.6955C26.7236 22.9327 26.7632 23.17 26.8027 23.3281C26.8818 23.4863 26.9213 23.6049 27.0399 23.7235C27.1585 23.8026 27.2772 23.8816 27.4353 23.9212C27.5935 23.9607 27.7912 23.9607 27.9889 23.9607C28.1075 23.9607 28.1865 23.9607 28.2656 23.9607C28.3447 23.9607 28.4633 23.9212 28.5424 23.9212C28.6215 23.8816 28.661 23.8421 28.661 23.763ZM25.4188 23.763V21.3512C25.4188 21.1139 25.4188 20.9162 25.3398 20.7186C25.3002 20.5209 25.2211 20.3232 25.1421 20.2045C25.063 20.0464 24.9048 19.9278 24.7467 19.8487C24.5885 19.7696 24.3513 19.7301 24.0745 19.7301C23.8373 19.7301 23.6396 19.7696 23.4419 19.8092C23.2442 19.8882 23.0861 19.9673 22.8488 20.1255V19.9278C22.8488 19.8882 22.8488 19.8487 22.8093 19.8092C22.8093 19.7696 22.8093 19.7301 22.7302 19.7301H21.8999C21.8604 19.7301 21.8208 19.7301 21.7813 19.7696C21.7417 19.8092 21.7417 19.8487 21.7417 19.8882V23.763C21.7417 23.8026 21.7417 23.8421 21.7813 23.8816C21.8208 23.9212 21.8604 23.9212 21.8999 23.9212H22.8093C22.8488 23.9212 22.8884 23.9212 22.9279 23.8816C22.9674 23.8421 22.9674 23.8026 22.9674 23.763V20.9162C23.0861 20.8372 23.2047 20.7976 23.3233 20.7581C23.4419 20.7186 23.5605 20.679 23.6791 20.679C23.7978 20.679 23.8768 20.679 23.9559 20.7186C24.035 20.7186 24.0745 20.7976 24.1141 20.8372C24.1536 20.9162 24.1931 20.9558 24.1931 21.0349C24.1931 21.1139 24.1931 21.2326 24.1931 21.3512V23.763C24.1931 23.8026 24.1931 23.8421 24.2327 23.8816C24.2722 23.9212 24.3118 23.9212 24.3513 23.9212H25.2211C25.2607 23.9212 25.3002 23.9212 25.3398 23.8816C25.4188 23.8421 25.4188 23.8026 25.4188 23.763ZM19.8439 22.0629C19.8439 22.6559 19.6462 22.9723 19.1717 22.9723C18.974 22.9723 18.7763 22.8932 18.6973 22.735C18.6182 22.5769 18.5391 22.3396 18.5391 22.0629V21.5489C18.5391 21.2326 18.6182 21.0349 18.6973 20.8767C18.8159 20.7185 18.974 20.6395 19.1717 20.6395C19.6066 20.6395 19.8439 20.9558 19.8439 21.5489V22.0629ZM21.03 21.5489C21.03 21.2721 20.9905 20.9953 20.9114 20.7581C20.8323 20.5209 20.7137 20.3232 20.5556 20.165C20.3974 20.0069 20.1997 19.8882 19.9625 19.7696C19.7253 19.651 19.488 19.651 19.1717 19.651C18.8554 19.651 18.6182 19.6905 18.3809 19.7696C18.1437 19.8487 17.946 19.9673 17.7879 20.165C17.6297 20.3232 17.5111 20.5209 17.432 20.7581C17.3529 20.9953 17.3134 21.2721 17.3134 21.5489V22.0629C17.3134 22.3396 17.3529 22.6164 17.432 22.8536C17.5111 23.0909 17.6297 23.2886 17.7879 23.4467C17.946 23.6049 18.1437 23.7235 18.3809 23.8421C18.6182 23.9607 18.8554 23.9607 19.1717 23.9607C19.488 23.9607 19.7253 23.9212 19.9625 23.8421C20.1997 23.763 20.3974 23.6444 20.5556 23.4467C20.7137 23.2886 20.8323 23.0909 20.9114 22.8536C20.9905 22.6164 21.03 22.3396 21.03 22.0629V21.5489ZM16.9576 23.684V23.0513C16.9576 23.0118 16.9576 22.9723 16.918 22.9723C16.8785 22.9327 16.8389 22.9327 16.7994 22.9327C16.6808 22.9327 16.5226 22.9723 16.404 22.9723C16.2854 22.9723 16.1272 22.9723 15.89 22.9723C15.8109 22.9723 15.7319 22.9723 15.6528 22.9327C15.5737 22.8932 15.5342 22.8536 15.4551 22.8141C15.376 22.7746 15.376 22.6559 15.3365 22.5769C15.2969 22.4187 15.2969 22.3001 15.2969 22.1419V21.5489C15.2969 21.3907 15.2969 21.2326 15.3365 21.1535C15.376 21.0349 15.4155 20.9558 15.4551 20.9162C15.5342 20.8372 15.5737 20.7976 15.6528 20.7976C15.7319 20.7581 15.8109 20.7581 15.89 20.7581C16.0877 20.7581 16.2854 20.7581 16.404 20.7581C16.5226 20.7581 16.6808 20.7581 16.7994 20.7976C16.8389 20.7976 16.8785 20.7976 16.918 20.7581C16.9576 20.7581 16.9576 20.7185 16.9576 20.679V20.0464C16.9576 19.9673 16.9576 19.9673 16.918 19.9278C16.8785 19.9278 16.8389 19.8882 16.7994 19.8487C16.6808 19.8092 16.5622 19.8092 16.404 19.7696C16.2459 19.7301 16.0482 19.7301 15.8109 19.7301C15.2969 19.7301 14.862 19.8882 14.5457 20.2045C14.2294 20.5209 14.0712 20.9558 14.0712 21.5884V22.1419C14.0712 22.735 14.2294 23.2095 14.5457 23.5258C14.862 23.8421 15.2969 24.0003 15.8109 24.0003C16.0086 24.0003 16.2063 24.0003 16.404 23.9607C16.5622 23.9212 16.6808 23.9212 16.7994 23.8816C16.8785 23.8816 16.8785 23.8421 16.918 23.8026C16.918 23.8026 16.9576 23.7235 16.9576 23.684ZM13.32 23.763V21.3512C13.32 21.1139 13.32 20.9162 13.2409 20.7186C13.2014 20.5209 13.1223 20.3232 13.0432 20.2045C12.9641 20.0464 12.806 19.9278 12.6478 19.8487C12.4897 19.7696 12.2524 19.7301 11.9757 19.7301C11.7384 19.7301 11.5407 19.7696 11.3431 19.8092C11.1454 19.8487 10.9872 19.9673 10.75 20.1255V19.9278C10.75 19.8882 10.75 19.8487 10.7104 19.8092C10.6709 19.7696 10.6314 19.7696 10.5918 19.7696H9.76151C9.72197 19.7696 9.68243 19.7696 9.64289 19.8092C9.60335 19.8487 9.60335 19.8882 9.60335 19.9278V23.8026C9.60335 23.8421 9.60335 23.8816 9.64289 23.9212C9.68243 23.9607 9.72197 23.9607 9.76151 23.9607H10.6314C10.6709 23.9607 10.7104 23.9607 10.75 23.9212C10.7895 23.8816 10.7895 23.8421 10.7895 23.8026V20.9558C10.9081 20.8767 11.0267 20.8372 11.1454 20.7976C11.264 20.7581 11.3826 20.7186 11.5012 20.7186C11.6198 20.7186 11.6989 20.7186 11.778 20.7581C11.8571 20.7581 11.8966 20.8372 11.9361 20.8767C11.9757 20.9558 12.0152 20.9953 12.0152 21.0744C12.0152 21.1535 12.0152 21.2721 12.0152 21.3907V23.8026C12.0152 23.8421 12.0152 23.8816 12.0548 23.9212C12.0943 23.9607 12.1338 23.9607 12.1734 23.9607H13.0432C13.0828 23.9607 13.1223 23.9607 13.1618 23.9212C13.32 23.8421 13.32 23.8026 13.32 23.763ZM7.62642 22.9327C7.54734 22.9723 7.42872 23.0118 7.34965 23.0513C7.23103 23.0909 7.15195 23.0909 7.03334 23.0909C6.87518 23.0909 6.75656 23.0909 6.67749 23.0118C6.59841 22.9723 6.55887 22.8932 6.55887 22.6955V22.6164C6.55887 22.5373 6.55887 22.4583 6.59841 22.3792C6.59841 22.3001 6.67749 22.2606 6.71703 22.221C6.75656 22.1815 6.83564 22.1419 6.91472 22.1419C6.9938 22.1419 7.11241 22.1024 7.23103 22.1024H7.62642V22.9327ZM8.81258 21.1535C8.81258 20.8767 8.77304 20.6395 8.69396 20.4813C8.61488 20.3232 8.49627 20.165 8.33811 20.0464C8.17996 19.9278 8.0218 19.8092 7.78457 19.7696C7.58688 19.6905 7.31011 19.6905 7.07287 19.6905C6.83564 19.6905 6.59841 19.6905 6.36118 19.7301C6.12394 19.7696 5.96579 19.8092 5.80764 19.8487C5.72856 19.8882 5.68902 19.9278 5.68902 20.0069V20.5999C5.68902 20.6395 5.68902 20.679 5.72856 20.7186C5.7681 20.7186 5.80764 20.7581 5.80764 20.7581C5.88671 20.7581 5.92625 20.7581 6.00533 20.7581C6.08441 20.7581 6.20302 20.7581 6.32164 20.7581C6.44025 20.7581 6.55887 20.7581 6.67749 20.7581C6.7961 20.7581 6.91472 20.7581 7.03334 20.7581C7.19149 20.7581 7.34965 20.7976 7.42872 20.8372C7.5078 20.8767 7.58688 21.0349 7.58688 21.2326V21.4698H7.19149C6.55887 21.4698 6.08441 21.5489 5.80764 21.7466C5.53086 21.9443 5.37271 22.2606 5.37271 22.6955V22.7746C5.37271 23.0118 5.41225 23.2095 5.49133 23.3676C5.5704 23.5258 5.64948 23.6444 5.7681 23.763C5.88671 23.8421 6.00533 23.9212 6.16348 23.9607C6.32164 24.0003 6.47979 24.0398 6.63795 24.0398C6.83564 24.0398 7.03334 24.0003 7.19149 23.9607C7.34965 23.9212 7.5078 23.8421 7.66596 23.7235V23.8421C7.66596 23.8816 7.66595 23.9212 7.70549 23.9607C7.74503 24.0003 7.78457 24.0003 7.82411 24.0003H8.65442C8.69396 24.0003 8.7335 24.0003 8.77304 23.9607C8.81258 23.9212 8.81258 23.8816 8.81258 23.8421V21.1535ZM3.51439 22.3001C3.51439 22.4978 3.43531 22.6559 3.3167 22.7746C3.19808 22.8932 2.92131 22.9327 2.52592 22.9327H2.40731C2.32823 22.9327 2.28869 22.9327 2.20961 22.9327C2.13054 22.9327 2.091 22.9327 2.01192 22.9327H1.8933V21.5884H2.72362C3.00039 21.5884 3.23762 21.6675 3.35624 21.7861C3.47485 21.9047 3.51439 22.0629 3.51439 22.221V22.3001ZM3.47485 20.165C3.47485 20.2441 3.47485 20.3232 3.43531 20.4022C3.43531 20.4418 3.39577 20.5209 3.3167 20.5604C3.23762 20.5999 3.19808 20.6395 3.07946 20.679C2.96085 20.7185 2.88177 20.7186 2.72362 20.7186H1.8933V19.4533C1.93284 19.4533 1.97238 19.4533 2.01192 19.4533C2.05146 19.4533 2.13054 19.4533 2.17007 19.4533H2.32823H2.44684C2.84223 19.4533 3.07946 19.4929 3.23762 19.5719C3.39577 19.651 3.47485 19.8092 3.47485 20.0069V20.165ZM4.74009 22.221C4.74009 21.9838 4.66101 21.7466 4.5424 21.5884C4.42378 21.3907 4.26563 21.2721 4.06793 21.1535C4.26563 21.0744 4.42378 20.9162 4.5424 20.7186C4.66101 20.5209 4.70055 20.3232 4.70055 20.0859V19.9673C4.70055 19.6905 4.62147 19.4533 4.5424 19.2556C4.42378 19.0579 4.26563 18.8998 4.06793 18.7812C3.87024 18.6625 3.63301 18.5835 3.3167 18.5439C3.03993 18.5044 2.72362 18.4648 2.36777 18.4648C2.24915 18.4648 2.13054 18.4648 2.01192 18.4648C1.8933 18.4648 1.77469 18.4648 1.65607 18.4648C1.53745 18.4648 1.41884 18.4648 1.30022 18.5044C1.18161 18.5439 1.10253 18.5044 1.06299 18.5439C0.944374 18.5835 0.825757 18.623 0.74668 18.6625C0.707141 18.7021 0.667603 18.8207 0.667603 19.0184V23.4467C0.667603 23.6049 0.707141 23.7235 0.74668 23.8026C0.825757 23.8816 0.904835 23.9212 1.06299 23.9212C1.14207 23.9212 1.22114 23.9607 1.33976 23.9607C1.45838 23.9607 1.53745 23.9607 1.69561 24.0003C1.85376 24.0398 1.93284 24.0003 2.05146 24.0003C2.17007 24.0003 2.32823 24.0003 2.44684 24.0003C2.76315 24.0003 3.07946 23.9607 3.35624 23.9212C3.63301 23.8816 3.87024 23.8026 4.10747 23.684C4.30516 23.5653 4.46332 23.4072 4.62147 23.17C4.74009 22.9723 4.81917 22.6955 4.81917 22.3792V22.221H4.74009Z" fill="#005498"/>
</g>
<defs>
<clipPath id="clip0_1601_710">
<rect width="39.0643" height="24" fill="white" transform="translate(0.667603)"/>
</clipPath>
</defs>
</svg>
