<svg width="123" height="48" viewBox="0 0 123 48" fill="none" xmlns="http://www.w3.org/2000/svg">
<g clip-path="url(#clip0_1601_740)">
<path d="M77.9454 34.382V5.97949H106.6C114.122 6.36524 120.084 12.5958 120.084 20.1095C120.084 27.6231 114.122 33.8537 106.6 34.2395H77.9454V34.3652V34.382Z" fill="url(#paint0_radial_1601_740)"/>
<path d="M106.08 8.31891H106.34C112.956 8.70465 118.013 14.0212 118.013 20.6376C118.013 27.2539 112.83 32.5621 106.34 32.9562H79.7568V8.31891H106.08ZM106.6 4.55371H76V36.5789H106.6C115.027 36.1931 121.769 29.191 121.769 20.6292C121.769 12.0673 115.027 5.07363 106.6 4.55371Z" fill="url(#paint1_linear_1601_740)"/>
<path d="M95.1949 31.5222C95.1111 31.5222 95.1111 31.5222 95.1949 31.5222C94.1551 31.5222 93.2495 31.0023 92.7295 30.0966L83.3962 13.887C82.6163 12.5872 83.1363 10.9016 84.436 10.1301C85.7358 9.35865 87.4214 9.87018 88.1929 11.17L95.3207 23.6144L110.491 1.82826C111.396 0.528467 113.082 0.268508 114.382 1.18255C115.681 2.0966 115.941 3.77375 115.027 5.07354L97.392 30.4907C96.8721 31.1364 96.0922 31.5306 95.1866 31.5306L95.1949 31.5222Z" fill="#CFD1D2"/>
<path d="M94.6751 30.8767C93.6352 30.8767 92.7296 30.3568 92.2096 29.4511L82.8763 13.2414C82.0964 11.9417 82.6163 10.2561 83.9161 9.48464C85.2159 8.71315 86.9015 9.22468 87.673 10.5245L94.8008 22.9689L109.971 1.18275C110.876 -0.117041 112.562 -0.376999 113.862 0.537047C115.161 1.45109 115.421 3.12824 114.507 4.42803L97.0063 29.7111C96.4864 30.4909 95.5807 30.8767 94.6751 30.8767Z" fill="#E9005C"/>
<path d="M75.9665 4.54492H0V36.5701H75.9665V4.54492Z" fill="#DA1B7D"/>
<path d="M4.69604 9.25777H6.49898L7.83231 15.2452L9.54301 9.25777H10.9686L12.6793 15.2452L14.0126 9.25777H15.8155L13.7275 18.6582H12.0168L10.2139 12.5785L8.50317 18.6582H6.79248L4.70443 9.25777H4.69604ZM18.2726 9.25777H23.4046V10.9685H20.0839V12.6792H23.4046V14.3898H20.0839V16.9559H23.4046V18.6666H18.2726V9.26616V9.25777ZM26.1636 18.6582V9.25777H27.6814C28.5367 9.25777 29.1992 9.35002 29.5849 9.45064C30.1552 9.64352 30.6332 9.828 30.9183 10.306C31.2956 10.6833 31.3963 11.1613 31.3963 11.7316C31.3963 12.1089 31.304 12.394 31.2034 12.6792C31.0105 12.9643 30.826 13.2494 30.4403 13.5345C31.0105 13.8196 31.3879 14.1047 31.673 14.5827C31.9581 14.9601 32.0503 15.4381 32.0503 16.0083C32.0503 16.5785 31.9581 17.0565 31.673 17.4339C31.3879 17.9119 31.0105 18.197 30.6248 18.3815C30.1468 18.5743 29.5765 18.6666 28.8218 18.6666H26.1636V18.6582ZM27.9665 10.9685V12.9643H28.3438C28.8218 12.9643 29.1069 12.872 29.2914 12.6792C29.4759 12.4863 29.5765 12.2012 29.5765 11.9161C29.5765 11.6309 29.4843 11.3458 29.2914 11.2536C29.0986 11.0607 28.8134 10.9685 28.3438 10.9685H27.9665ZM27.9665 14.5743V16.9475H28.4445C29.2076 16.9475 29.6772 16.8553 29.9623 16.6624C30.2474 16.4695 30.3397 16.1844 30.3397 15.807C30.3397 15.4297 30.1468 15.0439 29.8617 14.8594C29.5765 14.675 29.0063 14.4821 28.3438 14.4821L27.9665 14.5743ZM39.8407 10.4905L38.5074 11.6309C38.0294 10.9685 37.5598 10.6833 37.0818 10.6833C36.8889 10.6833 36.6038 10.7756 36.5116 10.8762C36.3187 10.9685 36.3187 11.1613 36.3187 11.2536C36.3187 11.4465 36.4109 11.5387 36.5116 11.7316C36.7044 11.9244 37.0818 12.3018 37.8449 12.9643C38.5074 13.5345 38.9854 13.9119 39.0776 14.0125C39.455 14.3898 39.7401 14.7756 39.8407 15.0607C40.0336 15.4381 40.0336 15.7232 40.0336 16.2012C40.0336 16.9643 39.7485 17.6267 39.2705 18.1047C38.7002 18.5827 38.0378 18.8678 37.1824 18.8678C36.5199 18.8678 35.9497 18.675 35.4717 18.3898C34.9937 18.1047 34.5241 17.5345 34.239 16.872L35.7568 15.9244C36.2348 16.7798 36.7044 17.1571 37.2747 17.1571C37.5598 17.1571 37.8449 17.0649 38.0378 16.872C38.2306 16.6792 38.3229 16.4947 38.3229 16.2096C38.3229 16.0167 38.2306 15.8322 38.13 15.5471C37.9371 15.3542 37.652 14.9768 37.0818 14.5995C36.0336 13.7441 35.3711 13.0817 35.086 12.6959C34.8009 12.2179 34.608 11.7483 34.608 11.3626C34.608 10.7001 34.8931 10.1299 35.3711 9.6519C35.8491 9.17391 36.5116 8.98943 37.174 8.98943C37.652 8.98943 38.1216 9.08167 38.5074 9.27454C38.8847 9.55966 39.3627 9.93702 39.8407 10.5072V10.4905ZM42.7841 9.25777H44.587V12.7714H47.7233V9.25777H49.6269V18.6582H47.7233V14.5743H44.587V18.6582H42.7841V9.25777ZM57.216 8.97266C58.5493 8.97266 59.6814 9.45064 60.6373 10.3982C61.5933 11.3458 62.0629 12.5869 62.0629 13.9119C62.0629 15.2368 61.5849 16.4779 60.6373 17.4255C59.6898 18.3731 58.5493 18.8511 57.216 18.8511C55.7904 18.8511 54.6499 18.3731 53.7023 17.4255C52.7547 16.4779 52.2768 15.2368 52.2768 13.9119C52.2768 13.0565 52.4696 12.2012 52.9392 11.4465C53.4088 10.6917 53.9875 10.1131 54.7422 9.64352C55.5975 9.26616 56.3606 8.98104 57.2076 8.98104L57.216 8.97266ZM57.216 10.7756C56.3606 10.7756 55.5975 11.0607 55.0273 11.7232C54.4571 12.2934 54.1719 13.0565 54.1719 14.0041C54.1719 15.0523 54.5493 15.9077 55.3124 16.4695C55.8826 16.9475 56.5451 17.132 57.3082 17.132C58.1636 17.132 58.9267 16.8469 59.4969 16.1844C60.0671 15.6142 60.3522 14.8511 60.3522 13.9035C60.3522 13.0481 60.0671 12.285 59.4046 11.6226C58.8344 11.0523 58.0713 10.7672 57.216 10.7672V10.7756ZM64.9141 9.25777H66.8176C67.8659 9.25777 68.6206 9.35001 69.0063 9.54289C69.4843 9.73576 69.8617 10.0209 70.0545 10.4905C70.3397 10.8678 70.4319 11.4381 70.4319 12.0083C70.4319 12.6708 70.239 13.241 69.9539 13.6267C69.5766 14.1047 69.0986 14.3898 68.5283 14.5743C68.151 14.6666 67.5807 14.7672 66.6248 14.7672V18.7588H64.8218L64.9141 9.25777ZM66.717 12.9643H67.2872C67.7652 12.9643 68.0504 12.9643 68.2348 12.872C68.4193 12.7798 68.5199 12.6792 68.6122 12.5869C68.7044 12.394 68.8051 12.3018 68.8051 12.0167C68.8051 11.6393 68.7128 11.3542 68.4277 11.2536C68.2348 11.1613 67.8575 11.0607 67.2872 11.0607H66.8093V12.9643H66.717ZM6.49898 22.5576H7.44657V26.1634L11.2453 22.5576H12.478L8.0168 26.8343L12.8638 32.0586H11.6311L7.45496 27.5974V32.0586H6.50737V22.5576H6.49898ZM14.2893 22.5576H19.7065V23.5052H15.2453V26.4485H19.6143V27.3961H15.2453V31.1026H19.6143V32.0502H14.2977V22.5492L14.2893 22.5576ZM21.3166 22.5576H22.2642V29.4926C22.2642 29.8699 22.4571 30.155 22.5493 30.4402C22.7422 30.7253 23.0273 30.9181 23.3124 31.1026C23.6898 31.2955 23.9749 31.3878 24.3606 31.3878C24.6457 31.3878 24.9308 31.2955 25.216 31.1949C25.5011 31.0942 25.7862 30.9098 25.9791 30.6246C26.1719 30.4318 26.3564 30.1467 26.3564 29.7693C26.4487 29.4842 26.4487 29.0062 26.4487 28.2515V22.5492H27.3963V28.2515C27.3963 29.1068 27.304 29.7693 27.1111 30.2473C26.9183 30.7253 26.6332 31.1949 26.1636 31.5806C25.694 31.9664 25.1153 32.1509 24.3606 32.1509C23.6059 32.1509 22.935 31.958 22.3648 31.5806C21.7946 31.2033 21.4172 30.7253 21.3166 30.155C21.2243 29.7777 21.1237 29.1068 21.1237 28.1592V22.5576H21.3166ZM29.9623 22.5576H31.8659C32.9141 22.5576 33.5766 22.5576 33.9539 22.6498C34.5241 22.742 35.0021 23.0272 35.2872 23.5052C35.6646 23.8825 35.8575 24.4527 35.8575 25.023C35.8575 25.501 35.7652 25.9706 35.4801 26.3563C35.195 26.7337 34.9099 27.0188 34.4319 27.2116C33.9539 27.4045 33.3837 27.4968 32.5283 27.4968L35.9497 31.8657H34.8093L31.3879 27.4968H30.8176V31.8657H29.87V22.5576H29.9623ZM30.9099 23.5052V26.7337H32.5283C33.1908 26.7337 33.6688 26.6414 33.9539 26.5408C34.239 26.4402 34.5241 26.2557 34.6164 25.9706C34.8093 25.6854 34.9015 25.4003 34.9015 25.1152C34.9015 24.8301 34.8093 24.545 34.6164 24.2599C34.4235 23.9748 34.239 23.7819 33.9539 23.6896C33.6688 23.5974 33.1908 23.4968 32.5283 23.4968H30.9099V23.5052ZM37.4591 32.0502L38.7925 22.5492H38.8847L42.7757 30.3395L46.5745 22.5492H46.6667L48 32.0502H47.1447L46.1971 25.3081L42.8763 32.0502H42.5912L39.2705 25.2158L38.3229 32.0502H37.4675H37.4591ZM49.9036 22.5576H55.3208V23.5052H50.8596V26.4485H55.2285V27.3961H50.8596V31.1026H55.2285V32.0502H49.912V22.5492L49.9036 22.5576ZM57.0315 22.5576H58.935C59.9833 22.5576 60.6457 22.5576 61.0231 22.6498C61.5933 22.742 62.0713 23.0272 62.3564 23.5052C62.7338 23.8825 62.9267 24.4527 62.9267 25.023C62.9267 25.501 62.8344 25.9706 62.5493 26.3563C62.2642 26.7337 61.9791 27.0188 61.5011 27.2116C61.0231 27.4045 60.4529 27.4968 59.5975 27.4968L63.0189 31.8657H61.8784L58.4571 27.4968H57.8868V31.8657H56.9392V22.5576H57.0315ZM57.8868 23.5052V26.7337H59.5053C60.1677 26.7337 60.6457 26.6414 60.9309 26.5408C61.216 26.4402 61.5011 26.2557 61.5933 25.9706C61.7862 25.6854 61.8784 25.4003 61.8784 25.1152C61.8784 24.8301 61.7862 24.545 61.5933 24.2599C61.4004 23.9748 61.216 23.7819 60.9309 23.6896C60.6457 23.5974 60.1677 23.4968 59.5053 23.4968H57.8868V23.5052ZM64.9141 22.5576H65.8617V26.1634L69.6604 22.5576H70.8931L66.3313 26.8343L71.2705 32.0586H69.9371L65.8533 27.5974V32.0586H64.9057V22.5576H64.9141Z" fill="white"/>
<path d="M1.10694 41.0322L2.90149 45.527L4.7212 41.0322H5.79458L2.88472 48.0008L0.0335693 41.0322H1.10694Z" fill="#241F20"/>
<path d="M10.8093 41.9541H8.20968V43.5138H10.7338V44.4363H8.20968V46.5998H10.8093V47.5222H7.23694V41.04H10.8093V41.9625V41.9541Z" fill="#241F20"/>
<path d="M13.719 41.0322V47.5144H12.7379V41.0322H13.719Z" fill="#241F20"/>
<path d="M16.8973 41.0322V46.592H18.8008V47.5144H15.9161V41.0322H16.8973Z" fill="#241F20"/>
<path d="M21.3501 41.0322V47.5144H20.369V41.0322H21.3501Z" fill="#241F20"/>
<path d="M26.8847 44.1344H29.5598V44.344C29.5598 44.8304 29.5011 45.258 29.3837 45.6354C29.2747 45.9792 29.0818 46.3063 28.8135 46.6082C28.2097 47.2874 27.4466 47.6228 26.5158 47.6228C25.585 47.6228 24.8302 47.2958 24.1845 46.6417C23.5388 45.9876 23.2118 45.1993 23.2118 44.2769C23.2118 43.3545 23.5388 42.5411 24.2013 41.887C24.8554 41.2329 25.6604 40.8975 26.5996 40.8975C27.1028 40.8975 27.5808 40.9981 28.0168 41.2077C28.4361 41.4174 28.847 41.7528 29.2579 42.214L28.5619 42.8849C28.0336 42.1805 27.3795 41.8199 26.6164 41.8199C25.9288 41.8199 25.3585 42.0547 24.8889 42.5327C24.4277 42.9939 24.1929 43.5809 24.1929 44.2769C24.1929 44.9729 24.4529 45.5935 24.9728 46.0631C25.4592 46.4991 25.9791 46.7172 26.5493 46.7172C27.0273 46.7172 27.4634 46.5578 27.8491 46.2308C28.2349 45.9038 28.4445 45.5096 28.4948 45.0568H26.8764V44.1344H26.8847Z" fill="#241F20"/>
<path d="M38.3145 41.9541H35.7149V43.5138H38.239V44.4363H35.7149V46.5998H38.3145V47.5222H34.7422V41.04H38.3145V41.9625V41.9541Z" fill="#241F20"/>
<path d="M40.2432 47.5139V40.5957L44.9727 45.5433V41.0401H45.9539V47.9165L41.2243 42.9856V47.5223H40.2432V47.5139Z" fill="#241F20"/>
<path d="M51.4382 47.5144V41.0322H52.411C52.847 41.0322 53.1909 41.0658 53.4508 41.1329C53.7108 41.1999 53.9288 41.309 54.1133 41.4767C54.2978 41.6444 54.4403 41.8456 54.5493 42.0972C54.6584 42.3488 54.7171 42.6004 54.7171 42.8519C54.7171 43.3131 54.541 43.7073 54.1804 44.0343C54.5242 44.1517 54.7925 44.3614 54.9938 44.6549C55.195 44.9484 55.2957 45.2838 55.2957 45.6695C55.2957 46.1727 55.1196 46.6004 54.759 46.9526C54.541 47.1706 54.2978 47.3215 54.0294 47.4054C53.7359 47.4892 53.367 47.5312 52.9225 47.5312H51.4382V47.5144ZM52.4194 43.8163H52.7296C53.0902 43.8163 53.3586 43.7324 53.5263 43.5731C53.694 43.4138 53.7779 43.179 53.7779 42.8603C53.7779 42.5417 53.694 42.3236 53.5179 42.1643C53.3418 42.005 53.0902 41.9295 52.7632 41.9295H52.4194V43.8163ZM52.4194 46.592H53.0231C53.4676 46.592 53.7862 46.5081 53.9959 46.332C54.2139 46.1475 54.3229 45.9043 54.3229 45.6192C54.3229 45.3341 54.2223 45.1077 54.0043 44.9148C53.803 44.7303 53.434 44.6297 52.9057 44.6297H52.411V46.592H52.4194Z" fill="#241F20"/>
<path d="M60.738 41.9541H58.1384V43.5138H60.6625V44.4363H58.1384V46.5998H60.738V47.5222H57.1656V41.04H60.738V41.9625V41.9541Z" fill="#241F20"/>
<path d="M64.4612 41.9547V47.5144H63.4801V41.9547H61.9874V41.0322H65.9371V41.9547H64.4528H64.4612Z" fill="#241F20"/>
<path d="M69.652 44.7555L71.6562 47.5144H70.457L68.6038 44.8645H68.4277V47.5144H67.4465V41.0322H68.5954C69.4507 41.0322 70.0713 41.1916 70.4486 41.5186C70.8679 41.8792 71.0776 42.3488 71.0776 42.9358C71.0776 43.397 70.9434 43.7911 70.6834 44.1182C70.4235 44.4452 70.0713 44.6633 69.6436 44.7555H69.652ZM68.4361 44.0092H68.7463C69.6688 44.0092 70.1384 43.657 70.1384 42.9442C70.1384 42.2817 69.6855 41.9463 68.7883 41.9463H68.4361V44.0008V44.0092Z" fill="#241F20"/>
<path d="M72.8135 44.2432C72.8135 43.3292 73.1489 42.5493 73.8198 41.8952C74.4822 41.2411 75.2873 40.9141 76.2181 40.9141C77.1489 40.9141 77.9288 41.2411 78.5913 41.9036C79.2537 42.5661 79.5892 43.3543 79.5892 44.2851C79.5892 45.2159 79.2537 46.0042 78.5913 46.6583C77.9204 47.3124 77.1154 47.6394 76.1678 47.6394C75.3292 47.6394 74.5829 47.3459 73.912 46.7673C73.1824 46.13 72.8135 45.283 72.8135 44.2516V44.2432ZM73.7946 44.2516C73.7946 44.9644 74.0378 45.5598 74.5158 46.021C74.9938 46.4822 75.5472 46.717 76.1762 46.717C76.8554 46.717 77.4256 46.4822 77.8952 46.0126C78.3648 45.5346 78.5996 44.956 78.5996 44.2767C78.5996 43.5975 78.3648 43.0021 77.9036 42.5409C77.4424 42.0713 76.8806 41.8365 76.2013 41.8365C75.5221 41.8365 74.9602 42.0713 74.4906 42.5409C74.0294 43.0021 73.7946 43.5807 73.7946 44.26V44.2516Z" fill="#241F20"/>
<path d="M82.4403 41.0322V44.9316C82.4403 45.4851 82.5326 45.896 82.717 46.1559C82.9854 46.5249 83.3711 46.7178 83.8659 46.7178C84.3606 46.7178 84.7464 46.5333 85.0147 46.1559C85.1992 45.9043 85.2915 45.5018 85.2915 44.9316V41.0322H86.2726V45.1999C86.2726 45.8792 86.063 46.4494 85.6353 46.8855C85.1573 47.3802 84.5703 47.6234 83.8743 47.6234C83.1783 47.6234 82.5913 47.3802 82.1133 46.8855C81.6856 46.441 81.476 45.8792 81.476 45.1999V41.0322H82.4571H82.4403Z" fill="#241F20"/>
<path d="M88.7714 41.032L90.457 45.3674L92.218 40.7217L93.9035 45.3674L95.6981 41.032H96.7631L93.87 47.925L92.2012 43.338L90.4654 47.9334L87.7148 41.0403H88.7798L88.7714 41.032Z" fill="#241F20"/>
<path d="M98.2138 47.5144V41.0322H99.1866C99.6226 41.0322 99.9664 41.0658 100.226 41.1329C100.486 41.1999 100.704 41.309 100.889 41.4767C101.073 41.6444 101.216 41.8456 101.325 42.0972C101.434 42.3488 101.484 42.6004 101.484 42.8519C101.484 43.3131 101.308 43.7073 100.948 44.0343C101.291 44.1517 101.56 44.3614 101.761 44.6549C101.962 44.9484 102.063 45.2838 102.063 45.6695C102.063 46.1727 101.887 46.6004 101.526 46.9526C101.308 47.1706 101.065 47.3215 100.797 47.4054C100.503 47.4892 100.134 47.5312 99.6897 47.5312H98.2054L98.2138 47.5144ZM99.195 43.8163H99.5052C99.8658 43.8163 100.134 43.7324 100.302 43.5731C100.47 43.4138 100.553 43.179 100.553 42.8603C100.553 42.5417 100.47 42.3236 100.293 42.1643C100.117 42.005 99.8658 41.9295 99.5388 41.9295H99.195V43.8163ZM99.195 46.592H99.7987C100.243 46.592 100.562 46.5081 100.771 46.332C100.99 46.1475 101.099 45.9043 101.099 45.6192C101.099 45.3341 100.998 45.1077 100.78 44.9148C100.579 44.7303 100.21 44.6297 99.6813 44.6297H99.1866V46.592H99.195Z" fill="#241F20"/>
<path d="M107.648 45.9371H104.872L104.151 47.5136H103.094L106.298 40.6289L109.392 47.5136H108.319L107.639 45.9371H107.648ZM107.254 45.023L106.289 42.8176L105.283 45.023H107.254Z" fill="#241F20"/>
<path d="M114.667 45.9371H111.891L111.17 47.5136H110.113L113.317 40.6289L116.411 47.5136H115.338L114.658 45.9371H114.667ZM114.264 45.023L113.3 42.8176L112.294 45.023H114.264Z" fill="#241F20"/>
<path d="M120.059 44.7555L122.063 47.5144H120.864L119.011 44.8645H118.834V47.5144H117.853V41.0322H119.002C119.857 41.0322 120.478 41.1916 120.855 41.5186C121.275 41.8792 121.484 42.3488 121.484 42.9358C121.484 43.397 121.35 43.7911 121.09 44.1182C120.83 44.4452 120.478 44.6633 120.05 44.7555H120.059ZM118.843 44.0092H119.153C120.075 44.0092 120.545 43.657 120.545 42.9442C120.545 42.2817 120.092 41.9463 119.195 41.9463H118.843V44.0008V44.0092Z" fill="#241F20"/>
</g>
<defs>
<radialGradient id="paint0_radial_1601_740" cx="0" cy="0" r="1" gradientUnits="userSpaceOnUse" gradientTransform="translate(105.99 3.47618) scale(63.3035)">
<stop stop-color="#FFFDF3"/>
<stop offset="0.37" stop-color="#F2F3EE"/>
<stop offset="0.75" stop-color="#E1E3E4"/>
<stop offset="0.88" stop-color="#E6E1DC"/>
</radialGradient>
<linearGradient id="paint1_linear_1601_740" x1="106.382" y1="-5.71044" x2="95.3375" y2="23.43" gradientUnits="userSpaceOnUse">
<stop stop-color="#D3E000"/>
<stop offset="1" stop-color="#7BC82A"/>
</linearGradient>
<clipPath id="clip0_1601_740">
<rect width="122.071" height="48" fill="white"/>
</clipPath>
</defs>
</svg>
