<svg width="28" height="24" viewBox="0 0 28 24" fill="none" xmlns="http://www.w3.org/2000/svg">
<g clip-path="url(#clip0_1601_691)">
<path d="M26.5879 6.58386C25.9955 5.08841 25.1167 3.81631 23.9757 2.80639C21.9705 1.02448 19.1592 0.0582642 15.8236 0.00485535V0H0V24H15.8236V23.9951C19.2806 23.9466 22.019 23.0872 23.9612 21.4364C26.3257 19.4263 27.525 16.2509 27.525 11.9976C27.525 9.96804 27.2094 8.14728 26.5879 6.58386ZM15.5274 22.4074C14.9836 22.4074 2.99575 22.4074 1.59741 22.4074C1.59741 20.98 1.59741 3.02488 1.59741 1.59741C2.99575 1.59741 14.9836 1.59741 15.5274 1.59741C18.596 1.59741 21.1499 2.42768 22.9221 4.00081C24.9225 5.77787 25.9373 8.47259 25.9373 12.0024C25.9324 19.0038 22.5288 22.4074 15.5274 22.4074Z" fill="black"/>
<path d="M14.8672 3.53516H9.49719V20.8445H14.8672C19.5332 20.8445 24.5002 19.4413 24.5002 12.2117C24.5002 5.37533 19.5332 3.53516 14.8672 3.53516Z" fill="#CD0067"/>
<path d="M7.80258 9.84624C7.80258 11.2252 6.68585 12.3419 5.30693 12.3419C3.92801 12.3419 2.81128 11.2252 2.81128 9.84624C2.81128 8.46732 3.92801 7.35059 5.30693 7.35059C6.68585 7.35059 7.80258 8.46732 7.80258 9.84624Z" fill="#000001"/>
<path d="M7.4675 13.5068H3.05884V20.8287H7.4675V13.5068Z" fill="#000001"/>
<path d="M11.9927 9.10349C11.8956 8.82188 11.7548 8.58396 11.5703 8.38489C11.3809 8.18582 11.1527 8.04987 10.8905 7.97219C10.6963 7.91393 10.4244 7.88965 10.0651 7.88965H8.41431V12.2837H10.1088C10.4293 12.2837 10.6915 12.2546 10.8857 12.1915C11.1479 12.1089 11.3615 11.9876 11.5217 11.8322C11.7257 11.6331 11.8859 11.3709 11.9976 11.0505C12.085 10.7931 12.1335 10.4824 12.1335 10.128C12.1335 9.72497 12.085 9.38024 11.9927 9.10349ZM9.48734 8.82188C9.59901 8.82188 9.75438 8.82188 9.75438 8.82188C10.1719 8.82188 10.3467 8.8413 10.4196 8.86072C10.5555 8.88985 10.672 8.94811 10.7546 9.03066C10.842 9.1132 10.9148 9.23458 10.9634 9.3851C11.0168 9.54532 11.0411 9.78324 11.0411 10.0891C11.0411 10.3999 11.0119 10.6426 10.9585 10.8174C10.91 10.9825 10.8468 11.099 10.7692 11.167C10.6915 11.235 10.5944 11.2835 10.4778 11.3127C10.3807 11.3369 10.2205 11.3467 9.99715 11.3467C9.99715 11.3467 9.633 11.3467 9.48248 11.3467C9.48734 11.1476 9.48734 9.02095 9.48734 8.82188Z" fill="white"/>
<path d="M13.9252 11.3467C13.9252 11.1816 13.9252 10.6135 13.9252 10.4484C14.1292 10.4484 16.013 10.4484 16.013 10.4484V9.51619C16.013 9.51619 14.1292 9.51619 13.9252 9.51619C13.9252 9.36568 13.9252 8.97239 13.9252 8.82188C14.1292 8.82188 16.1684 8.82188 16.1684 8.82188V7.88965H12.8571V12.2837H16.2461V11.3515C16.2461 11.3467 14.1292 11.3467 13.9252 11.3467Z" fill="white"/>
<path d="M19.2466 7.88965H18.1979L16.4888 12.2837H17.6249C17.6249 12.2837 17.9211 11.4632 17.9697 11.3369C18.1056 11.3369 19.3389 11.3369 19.4748 11.3369C19.5234 11.4632 19.839 12.2837 19.839 12.2837H20.9994L19.2466 7.88965ZM19.1252 10.3999C18.9262 10.3999 18.5135 10.3999 18.3144 10.3999C18.3872 10.2057 18.5911 9.63758 18.7174 9.30256C18.8388 9.63758 19.0524 10.2057 19.1252 10.3999Z" fill="white"/>
<path d="M22.4898 11.3469C22.4898 11.1332 22.4898 7.92383 22.4898 7.92383H21.4216V12.2839H24.5825V11.3517C24.5825 11.3469 22.6937 11.3469 22.4898 11.3469Z" fill="white"/>
</g>
<defs>
<clipPath id="clip0_1601_691">
<rect width="27.525" height="24" fill="white"/>
</clipPath>
</defs>
</svg>
