<svg width="21" height="24" viewBox="0 0 21 24" fill="none" xmlns="http://www.w3.org/2000/svg">
<g clip-path="url(#clip0_1601_702)">
<path d="M10.3485 4.35734C7.86666 4.35734 5.60136 5.27991 3.86883 6.80022C4.30196 5.78235 5.11192 4.96373 6.12546 4.5176V3.60368C6.12546 1.61126 4.50987 0 2.52178 0C2.38317 0 2.10597 0 2.10597 0H0.525024V14.1808C0.525024 19.6037 4.92134 24.0043 10.3442 24.0043C15.767 24.0043 20.1677 19.608 20.1677 14.1808C20.1677 8.75799 15.7714 4.35734 10.3485 4.35734ZM10.3485 19.4521C7.43353 19.4521 5.07294 17.0915 5.07294 14.1765C5.07294 14.1635 5.07294 14.1548 5.07294 14.1419H15.6241C15.6241 14.1548 15.6241 14.1635 15.6241 14.1765C15.6241 17.0915 13.2592 19.4521 10.3485 19.4521Z" fill="#F28D20"/>
</g>
<defs>
<clipPath id="clip0_1601_702">
<rect width="19.6427" height="24" fill="white" transform="translate(0.525024)"/>
</clipPath>
</defs>
</svg>
