<svg width="98" height="98" viewBox="0 0 98 98" fill="none" xmlns="http://www.w3.org/2000/svg">
<rect width="98" height="98" fill="#287330"/>
<path d="M80.063 64.2439C79.3359 66.427 78.1326 68.3551 76.96 70.324C76.4787 71.135 75.0552 74.2873 74.1233 74.4964C73.5089 74.6341 73.8622 70.8086 73.5805 70.4056C72.7408 69.1967 71.6706 69.9669 71.9215 67.845C72.0803 66.5086 72.5974 65.4732 72.408 64.3H71.7269C72.0598 65.4936 71.4453 66.427 71.2507 67.5798C71.1432 68.2072 71.0664 68.9927 71.3839 69.5844C71.7065 70.1863 72.1468 70.0945 72.4694 70.4923C73.3706 71.6043 72.7152 72.2674 72.9098 73.6395C73.0378 74.5423 73.4628 74.4556 73.1146 75.3942C73.0582 75.5421 70.4622 77.8731 67.3132 79.6584C64.031 81.5202 60.1599 82.8413 58.6238 83.2289C53.36 84.5551 50.2775 84.652 44.8755 84.0757C38.5211 83.3973 31.2757 80.2603 26.2321 76.2307C22.1102 72.9356 20.0108 69.4569 17.9729 64.5856C17.6503 64.5958 17.3226 64.6009 17 64.606C18.0036 67.1003 19.1455 69.1865 20.1337 70.7321C22.1409 73.8741 28.1574 79.4493 35.4898 82.4536C41.6087 84.9581 48.8848 85.2488 53.232 84.8561C59.822 84.2644 65.4647 81.2294 67.3592 80.296C69.2538 79.3575 72.3311 77.9037 75.3675 74.1394C77.9943 70.88 80.1705 65.9424 81 63.7338H80.2473C80.1756 63.897 80.1193 64.0705 80.063 64.2439ZM77.7537 30.3034C75.8386 27.4775 73.6625 24.8711 70.7489 23.0705C67.3848 20.9894 65.6746 19.9233 62.0391 18.5002C58.2551 17.021 53.8567 16.2406 49.8833 16.0263C46.3451 15.8325 41.6445 16.7404 38.2139 17.7147C31.4242 19.653 24.1276 24.1927 20.2668 30.4105C19.7241 31.2878 18.9202 32.8028 18.0804 34.7818H18.8946C18.9714 34.5829 19.0379 34.4095 19.0942 34.2667C19.2427 33.8943 19.3964 33.5577 19.5602 33.2771C19.6626 32.4151 20.2207 31.599 20.7635 30.9614C20.9274 30.7675 21.1014 30.5788 21.2858 30.3952C21.6903 29.4362 22.8065 28.4212 23.3903 27.753C26.8517 23.7897 31.4754 20.2804 36.6265 18.9542C38.9768 18.3472 41.3885 17.5515 43.8156 17.8779C44.8755 18.0207 45.6897 18.8062 46.5806 18.9185C46.8725 18.9542 48.598 18.1176 48.5673 18.9389C48.552 19.3877 47.364 19.3826 47.1643 19.7754C46.6933 20.6986 47.6201 21.2444 48.3164 21.4688C49.7194 21.9228 50.1803 21.6576 50.5745 20.4538C50.6923 20.0967 50.1803 19.8213 50.4312 19.4387C50.5387 19.2755 51.6396 18.7654 51.8085 19.2041C51.9724 19.6377 50.8049 20.8057 51.5832 21.4127C52.0799 21.8055 52.5203 21.3872 52.9453 21.1373C53.6468 20.7241 53.9847 20.2192 54.8296 19.9947C55.6028 19.7907 56.5449 19.8366 57.3386 19.8315C58.0503 19.8315 58.9669 19.7448 59.6223 20.0814C60.1446 20.3467 60.6925 20.7598 60.3084 22.0401C60.1292 22.642 61.7114 22.7287 61.0202 23.0705C60.7334 23.2133 59.4277 23.2847 59.0488 23.3561C58.3627 23.4836 57.5588 23.6775 56.8829 23.3C55.4287 22.489 57.7994 21.5658 56.6883 20.8159C56.376 20.6068 54.7579 21.1373 53.7901 21.7749C52.9555 22.3258 53.2269 23.0603 52.2335 23.0246C52.1209 23.0195 48.6493 22.489 47.9836 22.6369C46.6574 22.9379 45.9713 24.1876 46.7957 25.4729C47.149 26.0187 47.5944 26.0238 48.1065 26.3962C48.6902 26.8247 48.5724 27.248 48.9667 27.6663C49.8577 28.6201 50.1393 27.5337 51.2402 27.1766C52.0287 26.9216 52.3769 27.1154 52.679 26.7277C52.9914 26.3299 52.4486 25.2995 53.0016 24.9731C53.8055 24.4987 54.4148 25.0292 54.8859 27.1256C55.0293 27.7632 55.8895 27.35 56.0278 27.5388C56.1865 27.7581 56.2787 28.8803 56.4425 29.1608C56.6473 29.5128 57.1235 29.1149 57.0723 29.8545C57.0211 30.6094 55.869 30.4615 55.5413 31.0583C55.1573 31.7673 55.5874 32.8028 55.5208 33.0221C55.3672 33.5118 54.507 33.2006 54.4404 32.9558C54.2663 32.3233 54.4609 30.9002 54.1793 30.3952C53.8721 29.8392 52.9146 30.7114 52.6637 30.9155C52.3718 30.4309 52.3615 29.6964 51.614 29.7729C50.5387 29.88 51.1173 31.2419 50.9432 31.4612C50.554 31.9407 50.339 31.8234 49.4736 31.9917C48.8592 32.109 48.5059 32.308 48.1731 32.5783C48.3728 32.665 48.5417 32.8028 48.68 32.9762C48.7977 32.8997 48.9258 32.8334 49.0691 32.7772C49.6375 32.5579 50.2468 32.7109 50.8049 32.5477C52.1414 32.1601 51.2965 30.4768 51.7266 30.5992C52.0953 30.7012 51.8034 31.6857 52.4742 31.8183C53.0733 31.9356 53.3549 30.7267 53.8004 30.8543C54.2766 30.9869 53.2986 32.9915 54.1179 33.5475C54.6555 33.9096 55.7973 33.828 56.1251 33.2057C56.4784 32.5375 54.932 31.3286 57.0211 30.8441C57.6714 30.691 57.9991 29.9208 57.7482 29.2271C57.528 28.615 57.0109 28.8038 56.76 28.3957C56.3759 27.7836 57.2259 27.1715 56.4118 26.7124C56.0534 26.5135 55.7001 26.9981 55.3263 26.7379C55.1931 26.6461 54.7784 24.8149 54.0206 24.3967C53.3037 23.9988 52.2131 24.8405 52.2847 25.4525C52.4384 26.8247 51.5423 26.2279 51.0098 26.5339C50.2007 27.0032 49.4173 27.4214 49.3661 27.1103C49.1767 25.9779 47.8197 26.0136 47.3436 24.82C46.6369 23.0552 48.6646 23.4275 49.7092 23.4581C50.4312 23.4785 51.0763 23.4888 51.7522 23.6163C52.1465 23.6928 53.1091 24.0141 53.4624 23.3765C54.2561 21.9432 55.7154 21.173 56.1148 21.7188C56.2582 21.9177 55.2136 22.7644 55.4543 23.3357C55.8127 24.1876 57.441 24.208 58.1886 24.1927C59.1051 24.1723 62.4385 24.0192 62.0391 22.6012C61.9162 22.1626 61.394 22.1728 61.2455 21.8514C61.1687 21.6831 61.4452 21.0608 61.1482 20.4691C60.9126 19.9896 60.1497 19.5255 59.6837 19.3622C57.9889 18.7705 54.9678 18.8522 53.4368 19.8009C50.636 21.5403 53.6929 19.3775 52.2028 18.3778C51.5372 17.934 50.2007 18.4492 49.8577 19.0409C49.4532 19.7346 50.2366 20.6272 49.5504 20.9231C49.2381 21.0557 47.8863 20.7088 47.8966 20.3008C47.9068 19.8723 49.2125 19.7652 49.3354 19.0562C49.7041 16.8731 45.5565 17.8626 45.4541 17.021C45.4234 16.771 49.6733 16.3477 53.6007 16.9241C56.7856 17.3882 59.7452 17.9901 63.2834 19.5867C65.096 20.4028 68.286 22.1319 70.9845 24.0753C73.9902 26.2432 75.9922 28.6966 75.895 28.9976C75.6492 29.7576 73.6676 29.3087 74.6353 30.8492C74.7685 31.0583 75.9308 31.1297 75.7925 31.7571C75.5314 32.9762 76.9395 32.4457 77.3082 32.6446C78.5525 33.3077 76.919 33.6087 76.5913 33.675C76.1663 33.7566 75.8847 33.4965 75.4546 33.726C75.3778 33.7668 75.3317 33.8382 75.2959 33.9198C75.6133 33.9657 75.9206 34.0422 76.2175 34.1647C76.9139 34.0422 77.979 34.7155 78.3323 33.5067C78.4603 33.068 77.851 32.359 78.66 32.7772C78.8648 32.8844 79.2744 33.573 79.7404 34.5523C79.894 34.5574 80.0476 34.5625 80.2063 34.5676C79.469 33.0629 78.6549 31.6296 77.7537 30.3034ZM76.4326 32.0427C76.0537 32.0121 76.5555 31.0889 76.4275 30.9308C76.1254 30.5635 75.0552 30.992 75.0962 30.1606C75.1627 28.8803 76.7142 30.1657 76.9498 30.4309C77.4208 30.9563 77.9022 31.9764 78.0711 32.3641C78.1838 32.6242 77.4772 32.1295 76.4326 32.0427Z" fill="#93B997"/>
<path d="M33.0542 14.3442C32.9034 14.2695 32.4474 14.5456 32.2259 14.6744C32.1962 14.6908 32.1718 14.7063 32.1517 14.7155C30.9815 15.3764 30.1592 16.4331 29.3489 17.5527L29.2012 17.7543C28.4775 18.7544 27.7324 19.7856 26.7967 20.6465C26.6849 20.7491 26.5741 20.8569 26.4677 20.9585C26.2962 21.1212 26.1215 21.2954 25.9375 21.4496C25.7067 21.6452 25.6391 21.5765 25.4458 21.3632L25.4395 21.359C25.1235 21.0168 24.8257 20.655 24.5351 20.3026C24.4085 20.1528 24.2808 19.9977 24.1532 19.8426C23.9424 19.5946 23.8111 19.3914 23.7514 19.104C23.7227 18.952 23.6645 18.5285 23.7338 18.3743C23.7954 18.2377 24.0747 18.1253 24.2927 18.0352C24.3889 17.9953 24.4704 17.9636 24.5245 17.9317C24.7619 17.8 24.9798 17.6231 25.2324 17.369C26.0988 16.4886 26.7173 15.3944 27.0653 14.1124C27.4222 12.7906 27.6564 11.6875 27.1352 10.5479C26.8079 9.82781 26.4764 9.28769 26.1222 8.88762C25.9695 8.71555 25.7956 8.54747 25.6334 8.38264C25.3586 8.11416 25.0819 7.83519 24.8645 7.52329C24.6834 7.25885 24.567 6.96047 24.5171 6.63866L24.5043 6.5705C24.4702 6.33257 24.4329 6.10612 24.272 5.91932C24.1057 5.73352 23.8683 5.60461 23.5774 5.54008C23.2592 5.4753 23.0623 5.47447 22.7801 5.6581C22.2983 5.97172 21.9845 6.68259 21.7617 7.26767C21.5943 7.71198 21.476 8.18501 21.3653 8.64033C21.3132 8.8565 21.2569 9.07891 21.1995 9.29609C21.1741 9.39319 21.1488 9.49029 21.1181 9.58839C20.8189 10.6658 20.5108 11.7828 20.4796 12.891C20.4534 13.8516 20.5862 15.2492 21.3911 16.4438C21.5649 16.6988 21.9858 17.2492 22.466 17.6798C22.7546 17.9348 23.0722 18.1408 23.2457 18.2493C23.3199 18.295 23.3763 18.3332 23.3835 18.3427C23.4634 18.4471 23.4825 18.6932 23.4394 19.0435C23.2412 18.9777 23.044 18.7435 22.8695 18.5429C22.8052 18.4628 22.7418 18.3879 22.6825 18.3339C22.5608 18.2103 22.4285 18.0887 22.3025 17.9713C22.1963 17.8719 22.0891 17.7672 21.9829 17.6678C21.7613 17.449 21.4206 17.1496 21.033 16.8047C20.4621 16.2989 19.812 15.7212 19.2659 15.1728C18.5429 14.4405 18.0408 13.7208 18.0309 13.6684C18.0359 13.6077 18.1114 13.5446 18.1912 13.4752C18.2146 13.4545 18.239 13.4391 18.2571 13.4193L18.2614 13.4131C18.6742 13.0528 19.3013 12.2067 18.8835 10.6023C18.7515 10.106 18.1013 9.09389 17.2313 8.24824C16.4819 7.52097 15.5746 6.97013 15.2511 6.81947C14.7538 6.5876 14.2106 6.40239 13.587 6.2541C13.3014 6.18858 13.0063 6.1303 12.7226 6.07526C12.2982 5.99795 11.8613 5.91215 11.45 5.78891C11.2297 5.72192 11.014 5.62147 10.8056 5.53052C10.7344 5.50053 10.6674 5.46431 10.5962 5.43432C10.5187 5.40009 10.4402 5.36062 10.3555 5.31689C10.1619 5.21771 9.95673 5.11527 9.75392 5.08298C9.42711 5.03068 8.74087 5.01368 8.47414 5.30841C8.36963 5.42046 8.3436 5.57198 8.3931 5.74726C8.4779 6.05161 8.80445 6.47864 9.03995 6.77082C9.2682 7.05351 9.47733 7.35067 9.66337 7.64134C9.89988 8.02564 10.0718 8.44387 10.2364 8.8526C10.3202 9.06484 10.4112 9.28656 10.5119 9.50105C10.7448 10.0109 11.1297 10.7473 11.6057 11.3579C11.6265 11.3811 11.6492 11.4148 11.6793 11.458C12.0068 11.8903 12.869 13.0415 14.2558 13.8167C15.4408 14.478 16.3773 14.1708 16.6869 14.0743L16.7027 14.0713C16.7545 14.0561 16.8508 14.0162 16.9586 13.9795C17.2039 13.8898 17.535 13.7621 17.6023 13.7711C17.7632 13.7841 17.9809 14.0688 18.1197 14.2544C18.157 14.3071 18.1923 14.3493 18.2204 14.382C19.0852 15.4024 20.0341 16.2603 21.0361 17.1679L21.1548 17.2758L21.4111 17.5043C21.6152 17.6884 21.8319 17.881 22.0381 18.0755C22.1037 18.1337 22.1703 18.1972 22.2485 18.2638C22.4507 18.4374 22.6601 18.6205 22.7914 18.8238C22.8079 18.8532 22.8534 18.9207 22.8501 18.9321C22.8458 18.9384 22.7963 18.9369 22.7574 18.9333L22.707 18.9266C22.5629 18.9158 21.7374 18.7405 21.5382 18.6695C21.4743 18.649 21.3763 18.3906 21.2987 18.1826C21.2661 18.0964 21.2334 18.0103 21.2047 17.9451C21.0685 17.6288 20.8313 17.3858 20.6001 17.1742C20.1971 16.8051 19.6427 16.5025 18.8951 16.2474C18.2985 16.0397 17.5934 15.923 17.0196 15.9228C16.6322 15.9254 16.2384 16.0106 15.8562 16.0991C15.6831 16.1372 15.5047 16.1764 15.3359 16.2082L15.1882 16.2361C14.7229 16.3186 14.2408 16.3988 13.7956 16.5589C13.452 16.6781 13.1101 16.835 12.784 16.9889C12.4823 17.1273 12.1657 17.274 11.8485 17.3882C11.6846 17.4463 11.5198 17.4992 11.3602 17.551C10.9322 17.6862 10.5305 17.8163 10.1441 18.0848C9.75337 18.3595 9.55127 18.6203 9.5401 18.8505C9.53419 18.9928 9.60841 19.1254 9.75122 19.245C9.88051 19.3509 10.0569 19.3882 10.2281 19.4264C10.3531 19.4517 10.4791 19.4822 10.5879 19.5377C10.7511 19.6209 10.9025 19.728 11.0539 19.8352C11.1552 19.9084 11.2564 19.9815 11.361 20.0433C11.4843 20.1177 11.6086 20.1974 11.732 20.2718C12.1594 20.5386 12.5984 20.8087 13.0462 21.039C13.1194 21.0795 13.1969 21.1137 13.2702 21.1542C13.784 21.4155 14.3156 21.6844 14.869 21.8948C15.4507 22.1107 16.0665 22.3039 16.6106 22.2337C16.7444 22.2193 16.8793 22.2101 17.0089 22.2019C17.2038 22.1923 17.404 22.1816 17.6035 22.1385C17.9919 22.0543 18.3002 21.9798 18.5802 21.8998C19.3745 21.6791 19.9219 21.4237 20.3017 21.0913C20.7858 20.6741 21.1863 20.0174 21.3507 19.3837C21.3573 19.3607 21.3629 19.3325 21.3685 19.3043C21.4041 19.1455 21.4387 18.9815 21.6023 18.9506C21.6761 18.9367 21.7896 18.9587 21.8925 18.9827C21.9386 18.9957 21.9838 19.0034 22.0227 19.007C22.2193 19.035 22.4178 19.0735 22.611 19.113C22.7024 19.1338 22.7928 19.1493 22.8884 19.1638C23.3412 19.2466 23.6459 19.6452 23.9468 20.0228C24.0266 20.1272 24.1064 20.2316 24.1885 20.3192L24.3567 20.5155C24.5385 20.7255 24.7328 20.944 24.9112 21.1656C24.9392 21.1983 24.9798 21.2395 25.0276 21.2902C25.1919 21.4655 25.4373 21.7232 25.3882 21.8682L25.1227 22.0541C24.6981 22.3515 24.2533 22.6582 23.817 22.9523C23.3363 23.2712 22.8275 23.5573 22.3379 23.829C21.6606 24.2067 20.9579 24.5946 20.3246 25.0889C19.8389 25.4685 19.3667 25.9486 18.8389 26.5967C18.4627 27.0642 18.0351 27.6065 17.751 28.214L17.7467 28.2202C17.6376 28.4526 17.5245 28.7509 17.6076 28.8438C17.6294 28.8723 17.6693 28.881 17.7168 28.8721C17.7274 28.8701 17.7432 28.8671 17.7527 28.8598C17.851 28.8304 17.9192 28.5841 17.9743 28.3836C17.9963 28.298 18.0204 28.2229 18.0346 28.1822C18.3059 27.5934 18.7407 27.0605 19.172 26.5664C19.5679 26.1169 20.0575 25.5846 20.6665 25.1058C21.2043 24.6839 21.8212 24.3339 22.297 24.0757C22.421 24.0088 22.5397 23.9429 22.6647 23.8813C23.1065 23.6458 23.5632 23.4021 23.9899 23.1152C24.1745 22.9934 24.3529 22.8674 24.5375 22.7457C24.9398 22.4742 25.3569 22.1945 25.7572 21.9126C26.2106 21.5935 26.6154 21.1912 27.0075 20.8076C27.0853 20.7278 27.1683 20.6469 27.2471 20.5723C27.6764 20.1546 28.0958 19.6844 28.503 19.1785C28.83 18.7692 29.1406 18.3305 29.4373 17.9052C29.9107 17.2293 30.4023 16.5338 30.9875 15.9291C31.4171 15.4842 31.9694 15.0812 32.6315 14.7389C32.641 14.7317 32.6717 14.7205 32.7076 14.7083C32.9065 14.6327 33.1139 14.5447 33.1191 14.4568C33.1231 14.3909 33.096 14.3634 33.0542 14.3442ZM14.5609 6.86837C14.827 6.97558 15.0444 7.11372 15.1928 7.20515C15.2357 7.22963 15.2733 7.25511 15.3036 7.2711C15.86 7.58413 16.3653 8.11858 16.7334 8.76581C17.1035 9.42353 17.3015 10.0377 17.3359 10.596C17.3746 11.2348 17.375 11.9026 17.1347 12.453C17.1344 12.4802 17.1153 12.4947 17.0879 12.4944C17.0668 12.4984 17.0437 12.4919 17.0292 12.4729C16.9524 12.3843 16.8653 12.2704 16.7792 12.1618C16.6921 12.0479 16.606 11.9393 16.5364 11.8601C16.5021 11.8231 16.4731 11.7852 16.4388 11.7482C16.2726 11.5624 16.1044 11.3661 15.9553 11.1554C15.57 10.62 15.3988 10.0605 15.2163 9.47046C15.2041 9.43476 15.1909 9.39381 15.1747 9.33713C15.0533 8.92567 14.7972 8.06178 14.4212 7.45948C14.1309 6.99303 13.7543 6.70578 13.5748 6.56591C13.5488 6.54368 13.5237 6.52669 13.5049 6.51395C13.6487 6.55196 14.1398 6.6927 14.5609 6.86837ZM10.278 5.54329C10.3146 5.56353 10.3459 5.58476 10.3753 5.59551L10.4182 5.61999C10.5814 5.70319 10.7499 5.78539 10.9227 5.86135C11.2496 6.00053 11.5757 6.10726 11.895 6.17729C11.9517 6.1883 12.0147 6.20355 12.0661 6.21555C12.3392 6.27258 12.5766 6.31462 12.8233 6.46351C12.9216 6.52096 13.0251 6.57742 13.1224 6.62964C13.2929 6.72233 13.4707 6.8245 13.6389 6.93392C14.1643 7.28538 14.4853 8.00124 14.7291 8.65567C14.804 8.82071 14.8544 9.00123 14.9039 9.1765C14.9373 9.2951 14.9716 9.41894 15.0102 9.53654C15.0326 9.59746 15.057 9.66887 15.0815 9.74028C15.161 9.95875 15.2517 10.2077 15.2471 10.4149C15.2201 10.3874 15.1805 10.3515 15.1327 10.3008C14.9506 10.1179 14.6125 9.77454 14.1904 9.41987C13.5984 8.9181 12.8467 8.38131 12.568 8.17873L12.5304 8.15325C11.949 7.73636 11.5067 7.30405 11.0921 6.7579C11.004 6.63878 10.9117 6.52591 10.8193 6.41303C10.7467 6.31814 10.6689 6.22424 10.5911 6.13034C10.4905 6.00273 10.3803 5.88235 10.2721 5.77247C10.1692 5.66158 10.06 5.54645 9.96569 5.42309C10.0626 5.41564 10.1797 5.48583 10.278 5.54329ZM8.859 5.43663C8.90054 5.3962 8.95561 5.36951 9.01892 5.35755C9.27217 5.30972 9.65869 5.47564 9.80051 5.59004C9.99872 5.74265 10.1627 5.94518 10.3256 6.14247C10.3609 6.18467 10.3899 6.22263 10.4252 6.26483C10.7283 6.62569 11.136 7.13514 11.3913 7.53218C10.9969 7.32431 10.6288 7.02459 10.2743 6.7386C10.1648 6.65068 10.0678 6.57126 9.96555 6.49283C9.70269 6.28726 8.86364 5.57693 8.85471 5.44287C8.85405 5.43937 8.85548 5.43729 8.859 5.43663ZM8.65525 5.65973C8.65557 5.63252 8.66843 5.6138 8.68755 5.59933C8.7677 5.6765 8.84983 5.76416 8.93723 5.85083C9.23473 6.15302 9.5728 6.49642 9.87425 6.7327C10.086 6.89905 10.2727 7.04842 10.4699 7.19579C10.5273 7.23925 10.5952 7.28072 10.6632 7.32218C10.7938 7.40612 10.9244 7.49005 11.021 7.59669C10.8571 7.65479 10.4126 7.41296 10.2608 7.33301L10.244 7.33076C10.0244 7.20934 9.81759 7.06921 9.58574 6.91209C9.47822 6.83465 8.63188 5.94108 8.65525 5.65973ZM10.3996 8.50141C10.3141 8.33836 10.235 8.17955 10.1907 8.09016C10.1723 8.05021 10.133 7.98703 10.0875 7.91961C9.9948 7.74707 9.83977 7.50485 9.86316 7.39726C10.2721 7.6241 10.7144 7.79579 11.1441 7.95898C11.6031 8.13291 12.0747 8.31534 12.5107 8.56966C12.9039 8.79949 13.3616 9.08227 13.7825 9.45891C13.8804 9.54358 13.9837 9.62725 14.0859 9.70568C14.1819 9.77986 14.2841 9.85829 14.3821 9.94296C14.4019 9.96094 14.4332 9.98218 14.4655 10.0087C14.5865 10.0998 14.8108 10.2747 14.8013 10.3688C14.7683 10.3967 14.5002 10.3659 14.3835 10.3554C14.3277 10.3496 14.2773 10.3429 14.2552 10.3416C14.0016 10.3298 13.743 10.2917 13.4951 10.2517C13.4552 10.2429 13.411 10.2404 13.3711 10.2317C12.8645 10.1536 12.2907 10.0665 11.7776 9.83758C11.4979 9.71664 10.7661 9.2847 10.7469 9.2123C10.7318 9.16087 10.5652 8.82852 10.3996 8.50141ZM11.7155 11.0711C11.4143 10.6338 11.0706 10.1449 10.8997 9.645C10.9416 9.66424 11.0557 9.71871 11.1876 9.78067C11.463 9.90785 11.8765 10.1012 12.2908 10.2402C12.7815 10.4082 13.2577 10.4703 13.5426 10.5033C13.5878 10.5111 13.632 10.5136 13.6656 10.5181C13.8054 10.5351 13.9495 10.5459 14.0936 10.5567C14.4356 10.5736 14.7838 10.5947 15.0744 10.7733C15.4088 10.9817 16.0619 11.7488 16.4544 12.2068C16.5956 12.3757 16.7005 12.497 16.7473 12.5425C16.7608 12.5562 16.7618 12.5615 16.7618 12.5615C16.7489 12.5802 16.6207 12.5664 16.3717 12.5211C16.3433 12.5156 16.3202 12.5091 16.3034 12.5069C16.0208 12.4571 15.7316 12.4302 15.4539 12.4067C15.2089 12.3823 14.9596 12.3643 14.7116 12.3242C14.183 12.2449 13.6573 12.0944 13.1514 11.875C12.9136 11.7733 12.0041 11.3261 11.791 11.1817L11.7155 11.0711ZM17.3753 13.4664C17.3621 13.5124 17.287 13.5483 17.1495 13.6014C17.1336 13.6044 17.1188 13.6126 17.0987 13.6218C16.7825 13.7413 15.8295 14.1059 14.8474 13.7375C13.6242 13.279 12.3959 12.0123 12.1439 11.6906C12.2561 11.7346 12.3629 11.7796 12.4698 11.8245C13.314 12.1864 14.1164 12.529 15.0681 12.6207C15.1628 12.63 15.2627 12.6383 15.3626 12.6465C15.7897 12.6799 16.2335 12.7155 16.6415 12.8503C16.9205 12.9387 17.1065 13.0557 17.2632 13.2487C17.3555 13.3616 17.3895 13.4257 17.3753 13.4664ZM17.7944 13.371C17.7723 13.3697 17.7545 13.3622 17.7463 13.3475C17.7298 13.318 17.6872 13.2663 17.6374 13.2052C17.5514 13.0965 17.4362 12.9499 17.3746 12.8258C17.3336 12.725 17.3623 12.6164 17.414 12.4274L17.4272 12.3815C17.5749 11.8323 17.582 11.3205 17.574 10.7573C17.5673 10.1722 17.4037 9.68178 17.1424 9.07953C17.0358 8.83358 16.9157 8.5739 16.7376 8.32518C16.7066 8.27674 16.6713 8.23453 16.6403 8.18609C16.543 8.047 16.4437 7.89742 16.3223 7.74658C16.698 8.02859 18.045 9.22943 18.5728 10.4329C19.0792 11.5808 18.5251 12.7551 18.5208 12.7614C18.439 12.9071 17.9692 13.3705 17.7944 13.371ZM20.304 17.1107C20.5846 17.3238 20.9102 17.7455 20.9303 17.9101C20.8499 17.8601 20.7427 17.7555 20.6427 17.6603C20.5959 17.6149 20.5491 17.5694 20.5095 17.5334C20.496 17.5197 20.4824 17.506 20.4637 17.4932C20.3261 17.3726 20.0375 17.1176 20.0118 16.9813C20.0751 16.9693 20.1767 17.0153 20.304 17.1107ZM17.0042 16.1592C17.0075 16.1477 17.0286 16.1438 17.0497 16.1398C17.2554 16.1009 18.0548 16.254 18.1953 16.3035C18.2477 16.3207 18.2949 16.339 18.3473 16.3562C18.6808 16.4725 19.0257 16.5919 19.3057 16.7725C19.591 16.9521 19.8354 17.2046 20.0663 17.4434C20.1204 17.4983 20.1754 17.5585 20.2348 17.6125C20.2754 17.6537 20.3222 17.6991 20.3681 17.7393C20.6075 17.9656 20.8813 18.2288 20.9552 18.5624C20.7185 18.7266 20.4642 18.5085 20.2412 18.3117C20.1558 18.2355 20.0714 18.1646 20.0034 18.1231C19.8926 18.0572 19.7775 17.9975 19.6624 17.9378C19.3768 17.7854 19.0839 17.6235 18.8049 17.4481C18.6994 17.3812 18.5948 17.3195 18.4893 17.2525C18.2426 17.1036 17.9887 16.9453 17.7496 16.7786C17.737 16.7702 17.712 16.7532 17.6816 16.7372C17.1948 16.4164 16.9676 16.2259 17.0042 16.1592ZM15.1364 16.4251C15.3168 16.3965 15.4909 16.3636 15.6535 16.3275C15.7168 16.3155 15.7844 16.2973 15.8573 16.2781C16.0759 16.2205 16.3051 16.1609 16.5122 16.187C16.6794 16.2043 16.8575 16.3661 16.998 16.5025C17.0293 16.5237 17.0554 16.546 17.0751 16.5639C17.4178 16.8739 17.8129 17.1142 18.1912 17.3523C18.3218 17.4362 18.4577 17.5191 18.5883 17.6031C18.862 17.7794 19.1483 17.9643 19.4454 18.1199C19.4633 18.1274 19.4936 18.1434 19.5355 18.1627C19.7208 18.2471 20.1618 18.4408 20.1189 18.59C20.0991 18.6589 19.7222 18.6595 19.5369 18.662C19.4663 18.6644 19.4116 18.6639 19.3842 18.6636C19.2988 18.6743 19.2081 18.686 19.1184 18.703L19.0604 18.7139C18.8705 18.7498 18.67 18.7877 18.4912 18.7671C18.3629 18.7534 18.2429 18.6674 18.1209 18.571C18.0249 18.4968 17.9236 18.4236 17.8178 18.3839C17.6763 18.3292 17.5282 18.2974 17.3864 18.2699C17.2331 18.2391 17.0735 18.2041 16.9257 18.1451C16.5946 18.0122 16.2431 17.9157 15.9093 17.8267C15.6963 17.7692 15.4823 17.7064 15.2672 17.6384C15.0344 17.563 14.8042 17.4435 14.575 17.3294L14.4118 17.2462C14.3939 17.2387 14.3699 17.2269 14.3395 17.2109C14.1657 17.1297 13.7584 16.9406 13.7558 16.8108C14.1627 16.5927 14.6606 16.5096 15.1364 16.4251ZM12.2076 17.467C12.2541 17.4528 12.2954 17.4395 12.3155 17.4303C12.4942 17.364 12.6647 17.2829 12.8361 17.2071C12.9473 17.159 13.0574 17.1056 13.1685 17.0574C13.4119 16.9572 13.5167 16.9917 13.7562 17.1311L13.9036 17.2173C14.1377 17.3576 14.3646 17.4886 14.6107 17.605C15.198 17.8796 16.935 18.4258 17.187 18.4868C17.21 18.4933 17.2437 18.4978 17.2836 18.5065C17.4874 18.5441 17.9685 18.6324 17.9722 18.7674C17.9742 18.7779 17.9656 18.7904 17.956 18.7976C17.8581 18.8867 17.3958 18.898 16.5796 18.8295C16.546 18.825 16.5186 18.8248 16.5018 18.8225C15.8927 18.7801 15.3512 18.8063 14.7972 18.911L14.7445 18.9209C14.6759 18.9339 14.5588 18.9506 14.4576 18.9643C14.3827 18.973 14.3141 18.9859 14.2825 18.9919L14.2772 18.9929C14.2403 18.9999 14.1328 18.9224 14.0045 18.8218C13.8438 18.6946 13.6206 18.525 13.3547 18.3906C12.9184 18.1635 12.4392 17.9988 11.9779 17.8416C11.8667 17.8029 11.7503 17.7651 11.6382 17.7211C11.6507 17.6428 12.0533 17.5178 12.2076 17.467ZM10.6654 18.0678L10.6866 18.0638C10.9912 17.9411 11.2303 17.847 11.5502 17.9495C12.2582 18.1688 12.9419 18.4034 13.5425 18.8059L13.5738 18.8271C13.6552 18.8823 13.767 18.9535 13.7621 19.0142C13.7608 19.0361 13.7479 19.0548 13.713 19.0723C13.679 19.095 13.5369 19.0947 13.4442 19.0959C13.401 19.0986 13.3684 19.0994 13.3463 19.0981C12.9964 19.1262 12.6393 19.0579 12.2927 18.9876L12.1908 18.9688C11.9471 18.9226 11.7011 18.893 11.4603 18.8625C11.3152 18.8464 11.1639 18.8261 11.0178 18.8049L10.7309 18.7613C10.6415 18.751 10.5511 18.7355 10.4618 18.7253C10.4281 18.7207 10.3839 18.7182 10.3282 18.7125C10.1904 18.7059 10.0073 18.6916 9.93017 18.6302C9.95849 18.375 10.4518 18.1516 10.6654 18.0678ZM9.97046 18.9592C10.0107 18.9408 10.1878 18.9236 10.849 19.0105C11.3482 19.0791 11.9409 19.179 12.3696 19.25C12.5955 19.2888 12.7709 19.3208 12.8603 19.3311C12.7778 19.4444 12.4557 19.4455 12.2809 19.446C12.2588 19.4447 12.2367 19.4434 12.2209 19.4464C11.965 19.4513 11.7519 19.3938 11.5138 19.3193C10.9746 19.1551 10.4664 19.0393 9.97046 18.9592ZM12.7144 20.5261C12.281 20.3147 11.8075 20.0349 11.3061 19.6952C11.1109 19.5583 11.1241 19.5124 11.1241 19.5124C11.1241 19.5124 11.1284 19.5062 11.1495 19.5022C11.1759 19.4972 11.2306 19.4977 11.3345 19.527L11.5076 19.5757C11.6976 19.6267 11.8822 19.6787 12.0854 19.6838C12.3495 19.6936 12.6427 19.6546 12.9352 19.583C13.045 19.5569 13.1455 19.5107 13.2418 19.4708C13.3731 19.4134 13.5053 19.3613 13.654 19.3387C13.9145 19.3003 14.1856 19.26 14.4398 19.2174C14.7099 19.1718 14.9905 19.1242 15.2678 19.0882C15.5768 19.0461 15.8634 19.03 16.1496 19.0411C16.177 19.0413 16.2159 19.0448 16.2538 19.0431C16.4075 19.0467 16.637 19.0468 16.7007 19.0945C16.641 19.2415 16.4297 19.3954 16.247 19.5277C16.1652 19.5866 16.0834 19.6454 16.0323 19.6931C15.9249 19.7894 15.8193 19.8962 15.7181 19.9968C15.6169 20.0974 15.5157 20.1979 15.4082 20.2943C15.0729 20.6019 14.7286 20.6018 14.3296 20.6011C14.2422 20.6014 14.1495 20.6026 14.0569 20.6038C13.9378 20.61 13.8198 20.6214 13.7123 20.6309C13.3739 20.6622 13.0577 20.6948 12.7144 20.5261ZM16.0845 21.9367C15.6238 21.8988 15.1869 21.7261 14.7667 21.5557L14.6955 21.5257C14.6839 21.5225 14.6661 21.515 14.6368 21.5042C13.6507 21.1149 13.4881 20.9773 13.4845 20.9291C13.7384 20.8268 14.0246 20.8379 14.294 20.8468C14.5582 20.8566 14.8329 20.8645 15.0887 20.7727C15.4462 20.64 15.7287 20.3423 16.0027 20.0571C16.1115 19.9388 16.2223 19.831 16.3288 19.7294C16.7205 19.3731 17.0463 19.1595 17.5587 19.0953C18.0764 19.0301 18.5899 18.9711 19.0895 18.9257C19.1538 18.9189 19.2233 18.9112 19.2929 18.9035C19.5069 18.8794 19.7315 18.8533 19.9452 18.8563C19.9673 18.8576 19.9937 18.8526 20.0095 18.8496C20.0411 18.8436 20.0738 18.8429 20.0873 18.8566C20.0946 18.8661 20.1028 18.8809 20.1015 18.9028C20.1032 18.9405 19.9581 19.0983 19.8803 19.1781C19.844 19.2175 19.812 19.2507 19.8035 19.2632C19.6986 19.4025 19.601 19.5512 19.5077 19.6937C19.3159 19.9798 19.1154 20.2783 18.8767 20.5188C18.4761 20.9148 17.9983 21.1626 17.5354 21.402C17.4559 21.4442 17.3765 21.4864 17.2927 21.5348C16.9165 21.7416 16.4957 21.9731 16.0845 21.9367ZM21.0932 19.3508C21.078 19.3863 21.0681 19.4207 21.0573 19.4499C20.9689 19.7055 20.8367 19.9314 20.7187 20.1166C20.4708 20.511 20.2084 20.8863 19.7675 21.1271C19.3458 21.3533 18.8739 21.5456 18.3955 21.674C18.3331 21.6912 18.2507 21.7176 18.1577 21.746C17.8121 21.8548 17.3386 22.0094 17.1091 21.9224C17.1196 21.8335 17.3534 21.7405 17.4804 21.6894C17.5206 21.6709 17.5565 21.6587 17.5767 21.6495C17.7715 21.5529 18.0004 21.4337 18.2358 21.2915C18.6516 21.0338 18.9717 20.7615 19.2602 20.4084C19.3575 20.2868 19.4646 20.1308 19.5751 19.9634C19.9792 19.3549 20.4757 18.5987 21.1818 18.8943C21.2171 19.0234 21.1476 19.2048 21.0932 19.3508ZM24.8096 17.4163C24.5725 17.6077 24.2929 17.7474 24.0229 17.8798L23.9582 17.9138C23.9233 17.9312 23.8936 17.9477 23.8692 17.9632C23.8151 17.9951 23.7749 18.0136 23.7571 18.0061C23.7393 17.9986 23.7218 17.9639 23.708 17.8904C23.7046 17.8151 23.7333 17.7065 23.7534 17.6104C23.7623 17.5707 23.7712 17.531 23.7758 17.4975C23.8041 17.3293 23.8377 17.16 23.8661 16.9918L23.9303 16.6376L23.9448 16.5697C24.0035 16.2436 24.0364 16.0419 24.3483 15.8418C24.5138 15.7346 24.6916 15.663 24.8657 15.6301C25.2614 15.5554 25.6601 15.6701 25.9998 15.9643C25.7701 16.5127 25.2369 17.075 24.8096 17.4163ZM26.6489 14.6851C26.638 14.7143 26.6238 14.755 26.6116 14.8062C26.522 15.0838 26.3621 15.5972 26.1617 15.6351L26.1564 15.6361C26.0762 15.6458 25.9015 15.5594 25.7748 15.4964C25.7151 15.4697 25.666 15.4409 25.6314 15.4312L25.5842 15.4129C25.4206 15.357 25.2613 15.2947 25.0928 15.2994C25.0434 15.2979 24.9959 15.3069 24.9484 15.3158C24.7637 15.3507 24.6058 15.4403 24.4478 15.5298C24.3545 15.5855 24.2559 15.6421 24.1544 15.683C24.0967 15.5799 24.2084 15.3035 24.2746 15.1336C24.2931 15.0866 24.3083 15.0512 24.3139 15.023C24.3379 14.9479 24.361 14.8675 24.3851 14.7923C24.419 14.6828 24.452 14.5679 24.4912 14.4574L24.5129 14.3989C24.5795 14.2018 24.6428 14.016 24.681 13.8133C24.6856 13.7799 24.6892 13.7412 24.6991 13.7067C24.7232 13.5447 24.7426 13.4162 24.8725 13.2939C25.1834 13.0017 25.6134 13.0508 25.9983 13.0921L26.0204 13.0934C26.3495 13.129 26.7874 13.22 26.9745 13.429C26.8891 13.8741 26.781 14.2855 26.6489 14.6851ZM26.4594 9.83392C26.4943 9.90333 26.522 9.96326 26.554 10.0169C27.162 11.037 27.3574 11.9558 27.1386 12.8225C27.1109 12.9363 27.0786 12.9967 27.0331 13.0162C26.978 13.0428 26.9025 13.0191 26.7904 12.9751C26.7725 12.9676 26.7547 12.9601 26.7317 12.9536C26.5325 12.8826 26.3099 12.8324 26.0523 12.7996C25.8389 12.7693 25.5929 12.7397 25.3608 12.7836L25.3397 12.7876C25.2764 12.7995 25.1873 12.8489 25.0983 12.8983C24.9796 12.9642 24.8556 13.031 24.7778 13.024C24.7478 12.8939 24.7685 12.7434 24.7913 12.6033C24.8028 12.5197 24.8186 12.4298 24.8186 12.343C24.8218 12.0709 24.7937 11.7775 24.765 11.5386C24.7528 11.416 24.7175 11.2869 24.6822 11.1578C24.6096 10.8892 24.5297 10.6111 24.6685 10.3622C24.9741 9.81036 25.4199 9.42208 25.8835 9.30194C26.1592 9.22815 26.3267 9.56574 26.4594 9.83392ZM24.4285 7.35586C24.5199 7.55037 24.6304 7.73041 24.7581 7.88549C24.9273 8.08702 25.1209 8.27309 25.3082 8.45491C25.4082 8.55006 25.5081 8.64522 25.6038 8.74661C25.6245 8.76984 25.6443 8.78782 25.6651 8.81104C25.736 8.86824 25.7891 8.91794 25.7947 8.97661C25.7954 9.00907 25.7759 9.05075 25.7344 9.09118C25.6843 9.14408 25.6019 9.17051 25.5194 9.19694C25.4729 9.21115 25.4264 9.22536 25.3862 9.24382C25.2464 9.31367 25.1274 9.40674 25.0133 9.52603C24.977 9.56546 24.9213 9.64657 24.858 9.7454C24.7347 9.93159 24.5257 10.2426 24.4535 10.2073C24.3991 10.1796 24.341 9.92994 24.3139 9.81559C24.306 9.77364 24.2948 9.74318 24.2918 9.72745C24.2684 9.66129 24.2492 9.58888 24.2258 9.52272C24.1882 9.41036 24.1559 9.29701 24.1192 9.18989C24.0836 9.08802 24.0417 8.98191 23.9925 8.8663C23.886 8.62036 23.7774 8.36393 23.7929 8.12752C23.8169 7.79175 24.0375 7.39714 24.2214 7.15606C24.2554 7.13335 24.286 7.12213 24.3101 7.13387C24.351 7.14787 24.3744 7.21404 24.3969 7.27496C24.4071 7.30018 24.4183 7.33064 24.4285 7.35586ZM23.3069 6.94324C23.2828 6.58399 23.3691 6.23102 23.4522 5.88954C23.4621 5.85509 23.4667 5.82164 23.4775 5.79244C23.9686 5.84631 24.1879 6.25557 24.2299 6.62231C24.25 6.78684 24.1956 6.84598 24.1083 6.93308C24.0763 6.96627 24.04 7.0057 24.0047 7.05037C23.887 7.20835 23.8122 7.39081 23.7374 7.57328L23.7189 7.6202C23.7114 7.63792 23.7048 7.66089 23.6992 7.6891C23.6827 7.74651 23.6672 7.80917 23.6322 7.82663C23.6227 7.83386 23.6059 7.83161 23.5943 7.82836C23.5818 7.81987 23.5498 7.76618 23.4597 7.5497C23.4515 7.53497 23.4495 7.52448 23.4485 7.51924C23.3687 7.32798 23.3225 7.14122 23.3069 6.94324ZM21.9198 8.04689C21.8525 7.60348 22.0288 7.20637 22.2111 6.8407C22.2187 6.82298 22.2348 6.79278 22.251 6.76258C22.3558 6.53644 22.641 5.93415 22.882 5.85062L22.9084 5.84564C22.94 5.83966 22.9684 5.84516 22.9925 5.8569C23.0515 5.93806 23.0321 6.1535 23.0186 6.31352C23.0137 6.37418 23.012 6.42336 23.0084 6.46206L23.0104 6.55942C23.0091 6.75514 23.0088 6.95611 23.0455 7.1501C23.1069 7.47516 23.2464 7.78004 23.385 8.07967C23.4404 8.19952 23.4968 8.32462 23.547 8.44547C23.7178 8.85845 23.8808 9.31637 24.0646 9.88439C24.0676 9.90012 24.0841 9.92959 24.0973 9.97053C24.1412 10.0871 24.2659 10.4002 24.2171 10.4312C24.1788 10.4601 23.9664 10.2613 23.879 10.1747C23.8394 10.1387 23.8061 10.107 23.7926 10.0932C23.3784 9.78052 22.975 9.43859 22.6749 9.18033C22.3414 8.89036 21.9888 8.52798 21.9198 8.04689ZM21.4043 9.42573C21.434 9.32239 21.4636 9.21905 21.488 9.1167C21.4936 9.0885 21.5048 9.03208 21.5183 8.95894C21.5556 8.751 21.6244 8.36332 21.7049 8.32641C21.7451 8.30795 21.8995 8.60459 21.9509 8.70347C21.9786 8.7634 22.0034 8.80759 22.0179 8.82657C22.1782 9.0678 22.3731 9.23189 22.6119 9.42571C22.76 9.54435 22.8995 9.67547 23.0328 9.80235C23.1119 9.87428 23.1858 9.9472 23.265 10.0191C23.3639 10.109 23.4714 10.1865 23.5789 10.2639C23.6739 10.3329 23.7752 10.406 23.8669 10.4865L23.945 10.5532C24.1086 10.696 24.2838 10.8421 24.3689 11.0324C24.4622 11.2374 24.4781 11.495 24.4933 11.7202C24.497 11.7684 24.4996 11.8113 24.5022 11.8543C24.529 12.1696 24.5333 12.424 24.5242 12.6647C24.5219 12.6814 24.5225 12.7138 24.5242 12.7515C24.5212 12.9096 24.5131 13.3292 24.4379 13.3651C24.2602 13.4367 23.5348 12.5474 23.4398 12.3916C23.3666 12.2643 23.2924 12.1317 23.2192 12.0043C23.0028 11.6108 22.7791 11.2078 22.4757 10.8741C22.3094 10.6883 22.1079 10.5472 21.9074 10.4113C21.6871 10.2574 21.4605 10.0993 21.2821 9.8778C21.3186 9.72428 21.3615 9.57501 21.4043 9.42573ZM21.0264 10.9252C21.0385 10.874 21.0478 10.8071 21.057 10.7402C21.0833 10.5615 21.1153 10.3546 21.204 10.2455C21.3187 10.3324 21.4312 10.4361 21.5364 10.5302C21.6426 10.6296 21.7541 10.728 21.8689 10.815C22.0859 10.9803 22.3075 11.1991 22.5266 11.4618C22.6997 11.6843 22.8379 11.9243 22.9646 12.161C23.1295 12.4556 23.2955 12.7555 23.5389 13.0028C23.6325 13.0937 23.7295 13.1731 23.8318 13.2515C23.9789 13.3649 24.1332 13.4878 24.245 13.6459C24.4159 13.8851 24.3655 14.0521 24.2778 14.3402C24.2406 14.4613 24.199 14.5886 24.1555 14.7054C24.1163 14.816 24.0728 14.9328 24.0398 15.0476C24.0191 15.1112 24.0023 15.1959 23.9832 15.2972C23.9384 15.5229 23.8876 15.804 23.7749 15.9013C23.6159 15.8118 23.4876 15.6243 23.3748 15.461C23.3293 15.3936 23.2837 15.3261 23.2402 15.2692C23.067 15.0467 22.8803 14.8105 22.7161 14.5483C22.6541 14.4514 22.5963 14.3483 22.5396 14.2504C22.4571 14.103 22.3684 13.9515 22.2658 13.8134C22.1787 13.6995 22.0821 13.5929 21.9802 13.4872C21.8845 13.3858 21.7889 13.2844 21.7018 13.1706C21.3297 12.6761 21.0985 12.2039 21.01 11.7645C20.9503 11.4772 20.9552 11.2427 21.0264 10.9252ZM21.5533 16.1743C21.452 16.0142 20.7025 14.4182 20.8119 14.1586C20.8205 14.1461 20.8301 14.1389 20.8459 14.1359C20.9831 14.11 21.3862 14.7397 21.4841 14.9113C21.5821 15.0828 21.6557 15.2698 21.724 15.4578C21.7903 15.6354 21.8629 15.8171 21.9546 15.9844C22.1535 16.3433 22.3382 16.6559 22.5233 16.9413C22.6163 17.0867 22.7284 17.2175 22.8396 17.3431C22.9662 17.493 23.1002 17.6523 23.1981 17.8238C22.5161 17.3662 21.9303 16.7818 21.5533 16.1743ZM22.4994 16.468L22.4684 16.4195C22.2682 16.0827 22.1039 15.7336 21.9459 15.3888C21.8792 15.2385 21.8054 15.0787 21.7252 14.9146C21.5936 14.6517 21.4184 14.4187 21.2575 14.2319C21.2086 14.1759 21.1546 14.121 21.0879 14.0576C20.9609 13.9349 20.834 13.8123 20.7808 13.6757C20.7155 13.5035 20.7211 13.2146 20.7204 13.0084C20.723 12.9645 20.7214 12.9268 20.7207 12.8943C20.7229 12.617 20.7503 12.3566 20.8162 12.1269C20.8851 12.1736 20.9659 12.3702 21.0263 12.5162C21.0642 12.6014 21.0949 12.677 21.1197 12.7212L21.2404 12.9265C21.3466 13.1128 21.4591 13.3033 21.5897 13.4741C21.6686 13.5732 21.7569 13.6651 21.8453 13.757C21.9535 13.8669 22.0617 13.9768 22.1518 14.1064C22.2365 14.237 22.3108 14.3696 22.386 14.5074C22.4447 14.6158 22.5097 14.7284 22.5737 14.8358C22.7049 15.0391 22.8755 15.3055 23.0853 15.5483C23.1423 15.6189 23.2037 15.6834 23.2713 15.752C23.4085 15.8999 23.551 16.0467 23.6374 16.215C23.7156 16.3686 23.6777 16.5441 23.6451 16.7186C23.6319 16.7645 23.625 16.8147 23.6181 16.8649C23.5996 16.9987 23.5696 17.1292 23.5449 17.2588C23.5159 17.3946 23.4879 17.5356 23.4705 17.6747C23.0734 17.4239 22.7399 16.8732 22.4994 16.468Z" fill="white"/>
<path d="M86.0972 79.9392C86.3774 80.1509 86.6324 80.4157 86.8609 80.7219C86.9478 80.8394 86.9695 80.9296 86.9067 80.9944C86.8024 81.1409 86.3864 81.0715 86.2631 81.0466L86.0006 80.9948C85.7425 80.9464 85.4762 80.895 85.2189 80.8195L85.1025 80.7862C84.954 80.7449 84.8017 80.7039 84.6558 80.6508C84.6314 80.6419 84.6067 80.6292 84.5738 80.6136C84.5077 80.5785 84.4211 80.5342 84.3597 80.541L84.3558 80.5414C84.4065 80.6476 84.4828 80.7741 84.5684 80.9149C84.6439 81.0338 84.7253 81.1713 84.8079 81.3202C84.8714 81.4365 84.937 81.5719 84.9932 81.6929L84.9937 81.6967C85.0695 81.8541 85.1551 82.0296 85.1888 82.0529C85.2477 82.0926 85.3095 82.1243 85.379 82.1551C85.4652 82.1957 85.5552 82.2358 85.6324 82.3005C85.9668 82.5795 86.7479 83.3448 86.7701 84.3488C86.77 84.4182 86.7613 84.5502 86.6733 84.6333C86.6242 84.6812 86.5568 84.7041 86.4787 84.7012C86.334 84.6941 86.1357 84.5542 86.0047 84.4608L85.9582 84.4274C85.6674 84.2245 85.4248 83.9315 85.1866 83.5029C84.9723 83.1142 84.8779 82.7892 84.8824 82.4455C84.8882 82.1199 84.7692 81.8821 84.6044 81.5529L84.5943 81.5329L84.5897 81.5257C84.5687 81.6167 84.5459 81.7619 84.5339 81.8288C84.5279 81.8796 84.5202 81.9151 84.518 81.9308C84.4786 82.101 84.4379 82.2944 84.3763 82.4748C84.2782 82.7826 84.1175 83.0858 83.9456 83.3941C83.8648 83.5419 83.6824 83.7896 83.4971 83.8025C83.4084 83.8085 83.3329 83.7591 83.2715 83.6618C83.1486 83.4607 83.1871 83.0854 83.2151 82.8127L83.2155 82.8082C83.222 82.7612 83.225 82.7184 83.2285 82.6795C83.2625 82.2862 83.3794 81.9031 83.4795 81.6143C83.5908 81.2858 83.7715 81.0575 83.9796 80.7953L84.024 80.7402C84.1296 80.6051 84.0831 80.537 83.9962 80.4194C83.9868 80.4051 83.9736 80.3911 83.9638 80.3729C83.8525 80.2118 83.743 80.0659 83.6309 79.9318C83.4736 79.7411 83.1623 79.4248 82.9836 79.2518C83.0235 79.471 83.0693 79.8824 83.0704 79.9979C83.0735 80.3408 83.0438 80.6332 82.9778 80.949C82.9787 80.9567 82.7717 81.8935 82.5672 81.9779C82.5006 82.0085 82.4344 82.0081 82.3807 81.9794C82.2306 81.9049 82.1843 81.6428 82.1529 81.4651L82.1515 81.4573L82.1511 81.4535C82.143 81.4158 82.1392 81.3816 82.1328 81.3591C81.9734 80.6944 81.8558 79.9864 82.0451 79.2751C82.0922 79.1041 82.159 78.9348 82.2393 78.7832L82.2551 78.7505L82.2599 78.7414C82.3261 78.6148 82.3339 78.5999 82.2481 78.4776C82.0627 78.209 81.8599 77.9231 81.6322 77.6592C81.592 77.787 81.5645 77.925 81.5371 78.063C81.5152 78.1811 81.4899 78.3035 81.4561 78.4191C81.3769 78.6862 81.2307 78.9107 81.0743 79.1478L81.0679 79.1601C81.035 79.2139 81.0017 79.2638 80.9684 79.3138L80.9683 79.3139C80.8393 79.5171 80.1608 80.2712 79.8151 80.3096C79.7959 80.3117 79.7763 80.31 79.7566 80.3084C79.6734 80.2945 79.6231 80.2268 79.61 80.1087C79.5408 79.4159 80.0064 78.4101 80.0268 78.3661L80.0269 78.3658C80.1684 78.0648 80.3496 77.8403 80.5388 77.6187C80.6388 77.5035 80.7409 77.4073 80.866 77.3086C80.8835 77.2912 80.9126 77.2726 80.9527 77.2488C81.0146 77.2111 81.1235 77.1412 81.1355 77.109C81.1642 77.0171 80.9352 76.8112 80.8102 76.7017L80.806 76.6983C80.7544 76.6539 80.7109 76.6125 80.6845 76.5846C80.4981 76.3778 80.3451 76.1557 80.2049 75.9438C80.1116 75.8038 80.0289 75.6549 79.9467 75.5098L79.9463 75.506C79.8968 75.4113 79.8432 75.3131 79.7865 75.223C79.7716 75.1938 79.7507 75.146 79.729 75.0906C79.723 75.072 79.7132 75.0538 79.7073 75.0352C79.3083 75.4343 78.8897 75.797 78.5178 76.0542C77.738 76.5959 76.8007 77.1203 75.8815 77.5271C75.5702 77.6658 75.2521 77.813 74.9486 77.9508C74.4119 78.1955 73.8569 78.45 73.2988 78.6778L73.2986 78.6779C73.2688 78.6889 73.239 78.6999 73.213 78.7105C73.1383 78.7381 73.0785 78.7602 73.0597 78.8008C73.0469 78.8254 73.0541 78.8554 73.0746 78.8994C73.1095 78.9688 73.249 79.069 73.3718 79.1594C73.4439 79.2131 73.5151 79.2592 73.5505 79.2977C73.6729 79.419 73.7991 79.5399 73.9245 79.6533C74.1189 79.8283 74.3146 80.0148 74.4954 80.2067C74.7653 80.5006 75.0531 80.8157 75.302 81.1659C75.3387 81.2158 75.3825 81.2958 75.4358 81.3901C75.5862 81.6587 75.8137 82.0614 75.9926 82.0608C76.0664 82.0603 76.1928 81.9383 76.2949 81.8421C76.3406 81.7985 76.3795 81.7633 76.4081 81.7409C76.5909 81.601 76.766 81.4967 76.9654 81.4013C77.3535 81.2194 77.7429 81.0489 78.2359 80.9709C78.3084 80.959 79.9526 80.7069 80.9556 81.089C81.1058 81.1455 81.1812 81.2297 81.1777 81.338C81.159 81.799 79.6893 82.5368 79.3393 82.6413C79.2449 82.6672 79.151 82.6969 79.0609 82.7262L79.0543 82.7283C78.6546 82.8532 78.277 82.9712 77.8636 82.9749C77.6809 82.976 77.4927 82.9622 77.3079 82.9442C77.0643 82.9211 76.8091 82.8993 76.5743 82.9216C76.9106 83.3932 77.2973 83.8283 77.6653 84.2347C77.8445 84.4317 77.8909 84.4219 78.1148 84.3746L78.1239 84.3727C78.1393 84.371 78.1581 84.365 78.1773 84.3629C78.4278 84.3081 78.701 84.2816 78.966 84.2868C80.0803 84.3056 81.1042 84.7702 82.0431 85.2751L82.0432 85.2752C82.0803 85.2942 82.1297 85.3195 82.1868 85.344L82.1963 85.3484C82.4426 85.4637 82.8108 85.6362 82.8705 85.8618C82.8909 85.9405 82.8725 86.0197 82.8186 86.095C82.6665 86.3009 81.4724 86.2639 81.1865 86.2456C80.6927 86.2118 80.2485 86.1339 79.7421 85.9858C79.5292 85.9247 78.6866 85.5864 78.5023 85.4681C78.6088 85.6568 79.1232 86.471 79.4144 86.8513C79.5827 87.0716 79.7665 87.2903 79.9788 87.5211L79.979 87.5213C80.0011 87.5458 80.0232 87.5703 80.0411 87.5913C80.1924 87.7635 80.3032 87.8861 80.5709 87.7754L80.6674 87.7338C81.1204 87.5408 81.5145 87.3775 82.0365 87.3503C82.5004 87.3257 83.1094 87.312 83.7017 87.4274C83.7614 87.4401 83.8288 87.4519 83.9001 87.4632L83.9262 87.4678C84.34 87.5405 84.8885 87.6368 85.1369 87.8849C85.2551 88.0028 85.2946 88.1141 85.2642 88.2255C85.1936 88.4647 84.7795 88.6225 84.5481 88.6752C84.0325 88.7942 83.5309 88.9001 83.0431 88.9196C82.7529 88.9326 82.4554 88.9155 82.1891 88.8988C82.1656 88.8976 82.1063 88.8887 82.0316 88.8816C81.8622 88.8619 81.4722 88.8166 81.4282 88.8407C81.4628 88.8716 81.4973 88.9024 81.5314 88.9295L81.542 88.9385C81.9796 89.3131 82.3265 89.61 82.8311 89.7413C83.3401 89.8775 83.7935 90.1433 84.3044 90.611C84.8672 91.1268 85.2274 91.6034 85.4382 92.1005C85.4489 92.1264 85.46 92.156 85.4749 92.1852L85.4782 92.1929C85.568 92.4036 85.7159 92.7507 85.6841 92.9485C85.6644 93.051 85.6183 93.1255 85.5457 93.1721C85.5021 93.2001 85.4492 93.2137 85.3992 93.2192C85.2955 93.2308 85.188 93.208 85.1236 93.1882C83.6426 92.7397 82.7477 91.3006 82.4324 90.7033C82.363 90.5684 82.3277 90.4258 82.2967 90.2865C82.2729 90.1774 82.2448 90.0648 82.2022 89.9616C82.1711 89.8918 81.9571 89.7151 81.7089 89.5113L81.6968 89.5015C81.5373 89.3716 81.3587 89.2262 81.2065 89.0851C81.0078 88.9067 80.8325 88.7295 80.6752 88.5735C80.4697 88.3689 80.2906 88.1921 80.1336 88.0746C80.0422 88.1619 80.0954 88.3603 80.135 88.5063C80.1486 88.5588 80.1613 88.6036 80.1651 88.6379C80.1948 88.8698 80.2134 89.1068 80.2315 89.34L80.2315 89.3403C80.2344 89.4016 80.2374 89.4628 80.2441 89.5237C80.2771 89.9249 80.272 90.3342 80.2657 90.732C80.2613 90.8675 80.2607 91.0025 80.2602 91.1375C80.2592 91.2687 80.2428 91.9261 80.011 92.0097C79.9213 92.0428 79.8057 91.9823 79.6757 91.8271C79.2865 91.3691 78.9766 90.8907 78.7436 90.4038C78.4791 89.8432 77.9418 88.403 78.6813 87.1487C78.7138 87.0911 78.7514 87.0445 78.7852 86.9983C78.88 86.8721 78.9544 86.7713 78.905 86.6071C78.8433 86.4019 78.0441 85.334 77.7794 84.9816C77.738 84.9245 77.7065 84.8856 77.6924 84.8641C77.692 84.895 77.6923 84.9682 77.6944 85.0566C77.7064 85.4795 77.7265 86.3602 77.5496 87.0084C77.294 87.9622 76.835 88.6263 76.6478 88.8669C76.5359 89.0143 76.3582 89.1998 76.1064 89.1391C75.9151 89.0949 75.8839 88.9214 75.8534 88.7515L75.8533 88.7508C75.8461 88.7208 75.8431 88.6941 75.8359 88.6641C75.8274 88.6226 75.818 88.5735 75.8044 88.521C75.6701 87.9422 75.3636 86.5842 75.6676 85.5402C75.9397 84.6178 76.5274 84.2573 76.8136 84.0817L76.8195 84.0781L76.8258 84.0742C76.9063 84.0245 76.9653 83.988 76.9703 83.9649C76.9737 83.9607 76.9733 83.9569 76.969 83.9535C76.9468 83.929 76.9187 83.8858 76.8816 83.8321C76.7619 83.6642 76.5628 83.3778 76.3134 83.0585C76.2052 82.924 76.0999 82.7815 76.0082 82.6567C75.816 82.3966 75.6472 82.1725 75.5964 82.1704C75.5921 82.167 75.5887 82.1713 75.5887 82.1713C75.5439 82.2225 75.5539 82.4527 75.5631 82.6059C75.5669 82.6749 75.5737 82.7359 75.5694 82.7672C75.5534 82.9733 75.5349 83.1913 75.4809 83.4055C75.3652 83.8695 75.1429 84.3184 74.8391 84.6992C74.5388 85.0757 73.5548 86.2647 73.0593 86.3198C73.0362 86.3224 73.0127 86.3211 72.9931 86.3194C72.9142 86.3089 72.8583 86.2612 72.8221 86.1804C72.682 85.8643 72.7457 85.248 72.7977 84.9106C72.8659 84.4403 72.9778 83.9768 73.1263 83.5284C73.2546 83.144 73.4321 82.7117 73.6528 82.2476C73.7345 82.0727 73.8533 81.8474 74.0165 81.6365C74.1088 81.5221 74.222 81.4209 74.336 81.3272C74.4501 81.2336 74.5526 81.1412 74.6346 81.0396C74.6551 81.0141 74.6624 80.9748 74.6535 80.9295C74.5788 80.5021 73.3208 79.4003 72.9493 79.1717L72.9284 79.1586C72.7445 79.0441 72.6571 78.9921 72.4334 79.0786C72.3066 79.1274 72.1828 79.2029 72.0585 79.2745C72.0077 79.3072 71.953 79.3402 71.8979 79.3695C71.5384 79.5637 71.1819 79.7845 70.8364 80.0003C70.7382 80.0613 70.6434 80.1181 70.5452 80.1792C69.4315 80.8659 68.6312 81.433 67.9572 82.0169C67.9252 82.0436 67.8931 82.0703 67.8615 82.1008C67.8509 82.1097 67.8368 82.1228 67.8227 82.1359C67.9011 82.2467 68.0571 82.4608 68.237 82.6798C68.5478 83.0617 68.9 83.4313 68.9413 83.4537C69.0184 83.4908 69.0843 83.4615 69.1751 83.4212L69.1786 83.4196L69.1787 83.4196C69.2158 83.4039 69.2529 83.3882 69.2939 83.3721C70.2412 83.0432 71.0359 83.5101 71.3319 83.724C71.5895 83.9074 71.8257 84.1434 72.0316 84.4212C72.1088 84.5206 72.1262 84.6074 72.0826 84.6701C71.986 84.8158 71.6088 84.7806 71.4543 84.7553C71.3715 84.7452 71.2883 84.7314 71.2055 84.7213L71.2017 84.7217C70.9529 84.6877 70.696 84.6507 70.4524 84.5929L70.3444 84.5663C70.2092 84.539 70.0572 84.5019 69.9164 84.4597C69.8964 84.4542 69.8678 84.4419 69.8393 84.4297L69.8392 84.4297C69.774 84.4022 69.6839 84.3621 69.6272 84.3761C69.6693 84.4756 69.7358 84.5839 69.8125 84.7141C69.8743 84.8152 69.9506 84.9417 70.0243 85.08C70.0792 85.1896 70.1355 85.3106 70.1866 85.4206L70.187 85.4244C70.2488 85.5602 70.3258 85.729 70.3553 85.7489C70.4095 85.7814 70.4666 85.8059 70.5319 85.8334C70.6138 85.8705 70.6991 85.9035 70.7716 85.961C71.0834 86.2117 71.8002 86.8877 71.7767 87.8312C71.7762 87.8968 71.759 88.0221 71.6744 88.1009C71.6215 88.1492 71.5579 88.1717 71.4802 88.1726C71.3364 88.1732 71.1517 88.051 71.0297 87.9682L70.9836 87.9386C70.7149 87.7602 70.4915 87.4997 70.2806 87.1067C70.0893 86.7501 70.0132 86.4501 70.0357 86.1276C70.056 85.8207 69.9496 85.5973 69.7988 85.2902C69.7765 85.3698 69.749 85.5078 69.7332 85.5751L69.7126 85.6699C69.6681 85.8291 69.6184 86.012 69.5521 86.1852C69.437 86.4794 69.2669 86.7683 69.09 87.0655C69.0045 87.2061 68.8135 87.4472 68.6368 87.4668L68.6214 87.4685C68.5403 87.4737 68.4734 87.431 68.4209 87.3443C68.3106 87.156 68.3647 86.803 68.4059 86.5439C68.4128 86.5007 68.4196 86.4576 68.4235 86.4224C68.4759 86.0541 68.6064 85.6888 68.7159 85.4144C68.8396 85.1019 69.0233 84.8816 69.2343 84.6288L69.2386 84.6237L69.283 84.5686C69.3894 84.4411 69.3523 84.3874 69.2739 84.2766L69.2735 84.2728C69.2645 84.2622 69.2552 84.2479 69.2458 84.2335L69.2458 84.2334C69.1439 84.0867 69.0476 83.9547 68.9448 83.835C68.7965 83.6549 68.4959 83.3644 68.3526 83.2299C68.3844 83.4462 68.4054 83.8449 68.4031 83.9299C68.3883 84.2516 68.3488 84.5259 68.2692 84.824C68.27 84.8316 68.0298 85.7143 67.8257 85.8025C67.7553 85.8335 67.6895 85.8369 67.6358 85.8082C67.4974 85.7361 67.4654 85.4986 67.4434 85.3354L67.4425 85.3284L67.442 85.3246C67.4382 85.2903 67.4314 85.2641 67.4289 85.2412C67.3065 84.6302 67.2256 83.9721 67.4422 83.2964C67.4944 83.1364 67.5654 82.9704 67.6505 82.826L67.6706 82.7968C67.7458 82.6689 67.7522 82.6566 67.6776 82.5453L67.5804 82.4058L67.5574 82.3736C67.0222 82.8765 66.4963 83.4632 65.9024 84.2079C65.8917 84.2168 65.8751 84.2417 65.8516 84.2752C65.6191 84.5979 65.3405 84.9605 65.2129 84.9323C65.1848 84.9238 65.1617 84.8917 65.1562 84.8422C65.1346 84.7173 65.3696 84.4522 65.4977 84.3107C65.5216 84.281 65.5426 84.2594 65.5563 84.2425C65.6998 84.0646 65.8429 83.8829 65.9827 83.7054L66.0814 83.5787C67.4098 81.8849 69.2204 80.6812 70.6492 79.8206C71.0685 79.5696 71.5177 79.3076 72.063 79.0003C72.3967 78.812 72.7286 78.6758 73.0814 78.531L73.1027 78.5223C73.2179 78.4748 73.3371 78.4268 73.4557 78.3751C73.571 78.3276 73.6859 78.2762 73.8011 78.2287C74.7443 77.827 75.7211 77.4138 76.6472 76.9292C77.7275 76.3618 78.7678 75.61 79.5773 74.8106C79.8225 74.5674 80.4339 73.8054 80.7976 73.2637C80.9207 73.0765 81.0083 72.9202 81.0759 72.7932C81.1729 72.6166 81.2242 72.5184 81.2942 72.5183C81.3215 72.5191 81.342 72.5284 81.3522 72.5504C81.437 72.7184 80.9168 73.5666 80.5186 74.1121C80.3498 74.343 80.1332 74.5984 79.8862 74.861C80.0067 75.1754 80.4481 75.9978 80.6802 76.0915C80.7003 76.097 80.7161 76.0991 80.7272 76.094C80.8049 76.0584 80.8804 76.0037 80.9599 75.9486C81.0466 75.8889 81.1328 75.8253 81.2255 75.7841C81.3958 75.7074 81.5662 75.6653 81.6951 75.6356C82.0366 75.559 82.3494 75.505 82.6226 75.4785C82.9419 75.4469 83.2637 75.4381 83.5846 75.4564C83.8193 75.4689 84.2362 75.5112 84.4226 75.6486C84.4815 75.6883 84.5028 75.74 84.4942 75.8026C84.4478 76.1201 83.4111 76.6247 83.093 76.7719C82.7822 76.9144 82.4565 76.993 82.1232 77.0031C81.9721 77.0083 81.8261 76.9898 81.6883 76.9743C81.6683 76.9688 81.6286 76.9617 81.5804 76.9477C81.5202 76.9313 81.4037 76.898 81.3452 76.8967C81.3785 76.9509 81.4812 77.0706 81.5708 77.1763C81.6334 77.2503 81.7093 77.3383 81.7771 77.4233C81.9338 77.6147 82.0758 77.7718 82.1652 77.8706L82.174 77.8804C82.1962 77.905 82.2141 77.9261 82.2273 77.9401C82.2414 77.9269 82.2628 77.9091 82.2837 77.8875L82.2978 77.8744C82.4627 77.7134 82.8112 77.3855 83.4749 77.3387C84.2074 77.2878 85.0246 77.6571 85.3873 77.821L85.3996 77.8266C85.4325 77.8422 85.4611 77.8544 85.4858 77.8671C85.502 77.873 85.5225 77.8823 85.5387 77.8882C85.6484 77.93 85.7708 77.982 85.7638 78.1293C85.7573 78.3151 85.5924 78.4066 85.4703 78.4626C85.2778 78.5496 84.7595 78.7498 84.0907 78.7856C83.6344 78.8093 83.0635 78.6761 82.7883 78.6142L82.7606 78.6095C83.2398 79.1771 83.5229 79.4849 83.6014 79.5263C83.6841 79.5711 83.755 79.544 83.8476 79.5028C83.8848 79.4871 83.9219 79.4714 83.9672 79.4587C84.929 79.1552 85.7782 79.6931 86.0972 79.9392Z" fill="#E9F1EA"/>
<path d="M37.0811 56.27L37.2697 56.3369L37.2995 56.4803L37.7065 56.9391L38.1135 57.5125L38.3716 57.7228H38.6198L38.7786 57.9044L38.9672 57.9713L39.4437 57.7897L39.533 57.9044L39.7216 57.9713L39.8804 57.8471L40.2577 57.8184L41.0419 57.9713L41.3 57.8471H41.9849L42.1437 57.7897L42.5507 57.9713L42.8386 57.6655L43.0272 57.5794V57.8471L43.2754 57.8184L43.6228 57.6368V57.4552L43.9107 56.4229V56.0884L43.8412 55.9355L43.7816 53.9666L43.8114 52.4851L43.9107 51.8447L43.7816 51.73L43.7221 51.5197L43.8114 51.3668L43.9107 50.9749L43.8114 50.5735L43.7221 50.4588L43.9702 50.1243L43.8412 49.4265L43.7221 49.2736L43.9107 48.9391L43.8809 48.7861L44 47.3047L43.8809 46.5496L43.9702 46.368L43.8114 46.2724L43.7221 46.0908L43.9107 45.6989L43.8412 45.5173V45.0299L43.6526 44.6953L43.9107 44.4277L43.8114 44.3035L43.9107 44.0358L43.8809 43.2139L43.9702 42.908L43.8809 42.7264L43.9107 41.9427L43.7816 41.2449L43.9107 40.5185L43.7221 40.2127L43.8412 40.0597L43.7816 39.4863L43.9107 39.2186L43.8114 38.1195L43.8412 37.46L43.7816 36.6667L43.9404 35.491L43.8114 34.8507L43.5632 34.6404V34.4588L43.464 34.3058L43.1562 34.1243L42.7393 34L42.4018 34.1243L41.9849 34.1816L41.4588 34L41.3 34.3345L41.0419 34.3632L41.1114 34.0669L40.5455 34.1243H39.0962L38.9672 34.4014L38.9076 34.2485L38.3418 34.1243L38.2426 34.2772V34.4588L38.0837 34.583L38.0242 34.2485L37.8356 34.3058L37.5874 34.7646L37.4584 34.8507L37.3988 35.4528L37.4286 36.2174L37.5179 36.552L37.4286 37.6416L37.5179 38.368L37.3988 38.7312L37.4584 40.0024L37.3988 40.6714L37.5179 41.3309V41.6655L37.3988 41.914L37.5477 43.1852L37.5179 43.5197L37.3988 43.7587L37.4584 44.0932L37.6172 44.4277L37.5179 44.5424L37.5477 44.9152L37.3988 44.9725L37.4881 45.5747L37.3988 45.9665L37.1705 46.2151L37.0216 46.2724L36.6741 46.2151L36.1381 45.6416L35.9495 45.546L35.9197 45.3357L35.7609 45.0299L35.2844 44.5806L35.1256 44.2461L34.7782 44.1505L34.6293 43.7873L33.5274 42.3632L32.9914 41.914L32.9219 41.5125L32.6439 41.3978H32.4553L32.3263 41.006L32.1675 40.9391L32.2667 41.3023L32.1675 41.5795L32.0781 41.3978L31.7605 41.3309L31.8597 41.1876L31.6314 40.853L31.7307 40.7575L31.8895 40.7861L31.8597 40.5759L31.5123 40.1553L31.5421 39.945L31.3833 39.8495L30.47 38.8841L30.3112 38.8172V38.4827L30.0332 38.2724L29.3681 37.4313L29.2788 37.5747V37.6989L29.0902 37.6416V37.2784L28.2663 36.2461L27.9189 36.4851V36.3035L27.77 35.9116L27.9883 35.7013L27.4225 35.1278L27.3233 35.2425L27.1644 35.3094L27.1347 35.1278L26.6681 34.6404L26.6284 34.4014L26.5391 34.2485L26.3802 34.1816L25.596 34.1243L25.4372 34.0669L25.0898 34.3058L25.0004 34.1529L24.8416 34.0669L24.4346 34.3632L23.7993 34.0669L23.6405 34.1816L23.3923 34.2485L23.1739 34.0669L22.6975 34.0287L22.35 34.1816L22.1316 34.3632L22.0423 34.2198L21.814 34.1816L21.7246 34.3345L21.1886 34.6404V35.1852L21.3772 35.8256L21.407 35.7013V35.9116L21.3177 36.0358L21.0596 36.1888L21.1886 36.7622L21.3177 36.9152L21.2879 37.1254L21.129 37.3644L21.3177 37.546L21.2184 37.6416L21.1886 38.1577L21.536 38.2151L21.6651 38.368L21.4368 38.7025L21.3474 39.037L21.407 39.2186L21.3177 39.3047L21.129 39.3333V40.1266L21 40.4612L21.3177 40.6714L21.2482 40.853L21.3772 41.7897L21.2184 42.1243L21 42.8507L21.129 43.1852L21.1588 43.5197L21.0596 44.6953L21.2184 45.0012L21.129 45.6033L21.1588 46.0048L21.2482 46.1481L21.129 46.2724L21.0993 46.454L21.1886 46.9988V47.6679L21.2482 48.0024L21.0596 48.2127L21.1886 48.3369L21.2482 48.7861L21.407 48.853L21.536 48.9964L21.129 49.2449L21.2184 49.6368L21.4765 49.914L21.6651 49.9713L21.536 50.0573L21.2482 49.914L21.1886 50.0573L21.2879 50.4205L21.3772 50.3632L21.3177 50.5735L21.1588 50.6691L21.0596 50.8507L21.3177 51.1852L21 51.4241L21.0993 51.7013L21.1588 52.8483L21.2879 53.1828L21.407 53.3071L21.536 53.2115L21.6651 53.2688L21.407 53.6033L21.129 53.8232L21.0993 53.9092L21.2184 54.0335L21.2482 54.2151L21.0993 54.3967L21.1886 54.693V54.9415L21.3772 55.0944L21.3177 55.2378L21.3474 55.4576L21.5956 55.8208L21.7246 55.8781L21.6651 56.1171L21.6254 55.9737L21.536 55.8781L21.1886 56.3369L21.0596 56.7288L21.1588 56.9104L21.4765 57.1207L21.2879 57.092L21.2482 57.3309L21.4765 57.3023L21.6651 56.9677L21.814 56.9964L21.6949 57.092L21.6651 57.6081L21.536 57.7897L21.8537 57.6368L22.0721 57.6655V57.8757L22.2309 57.9713L22.1614 57.6368L22.5386 57.6081L22.9158 57.6655L22.8265 57.8471L23.0151 57.9044L23.2037 57.8184L23.2633 57.6655L23.8291 57.8471L24.0177 57.9713L24.1765 57.8757L24.6232 57.7897L24.5835 57.9044L24.7423 58L24.9309 57.9713L25.0302 57.8184L25.189 57.7228L25.7549 57.9044H26.4795L26.8865 57.9713L27.353 57.5125L27.2339 57.2736L27.4523 57.2449L27.5814 57.1207L27.5119 56.9391L27.5814 56.4516L27.4225 56.0597L27.6409 55.8208L27.7005 55.6679L27.6111 55.5436V54.6643L27.4821 54.1481L27.353 54.0335L27.6409 53.6989V53.5173L27.5119 53.2115L27.6409 53.0585L27.6707 52.6953L27.5119 52.3608L27.6111 51.9976V51.6344L27.4523 51.2999L27.5814 51.1565L27.6111 50.7551L27.5119 50.5735L27.7005 50.3059L27.6111 49.8757L27.5416 48.4229L27.4523 48.0597L27.5814 47.945L27.6409 47.5436L27.5119 47.4289L27.5814 46.9415L27.5416 46.7599L27.1644 46.3393L27.353 46.0335L27.5119 46.1481L27.6111 45.8232L27.5814 45.6989L27.4523 45.6033L27.353 45.46L27.2935 45.1254L27.4225 45.0968L27.3927 44.8769L27.1644 44.5806L27.3233 44.4851L27.2339 44.1792L27.4821 43.8829L27.353 43.5484L27.1644 43.4241L27.2339 43.1852H27.1049L27.0453 43.0896L27.2339 42.8507L27.2637 43.0896L27.4225 43.1183L27.2935 42.9749L27.353 42.7933L27.5119 42.908L27.4225 42.6691V42.4875L27.2935 42.3919L27.2339 42.1816L27.5416 42.2103L27.8593 42.1243L27.9189 41.914L27.6707 41.9713L27.3233 41.914L27.1644 41.7037L27.1049 41.3978L27.1644 40.6045L27.0453 40.3369L27.0056 39.6105L27.2339 39.5818L27.353 39.4576L27.5814 39.4002L27.4523 39.8208L27.2935 39.8781L27.1049 39.8208L27.1644 40.0024L27.4225 40.2796L27.4821 40.4612L27.4225 40.6714L27.7005 40.853L27.6409 41.0346L27.7303 41.3309L27.6409 41.5125L27.8295 41.5795L27.9586 41.7037L28.1075 42.0669L27.9883 42.2103L27.8891 42.6691L27.9883 42.7933L28.1075 42.6404L28.1472 42.7933L27.9883 43.3094L27.8593 43.0323L27.7005 42.9749L27.6111 43.0609L27.5814 43.4528L27.7303 43.6057L27.7997 43.7587L27.5814 44.4851L27.9883 44.5424L27.7997 44.8196V45.1541L27.7005 45.4886L27.9189 45.5173L28.3953 45.9092L28.5542 45.8232L28.7726 46.2151L28.9314 46.2724L29.0604 46.6356L29.6858 47.4576L30.2218 47.9737L30.5395 48.0024L30.5991 48.1553L30.7281 48.184L30.6288 48.3656L30.6586 48.5185L31.0358 48.9391L31.3535 49.1207L31.3833 49.3023L31.5421 49.6081L32.2965 50.4875L32.4553 50.8507H32.8028L32.8325 51.0323L32.7333 51.2425L32.8623 51.3668L33.3984 51.5197V51.816L34.4407 53.1541L34.9668 53.6989L35.3142 53.8805V54.0621L35.4432 54.3967L36.2274 55.2091H36.5749L36.4855 55.5436L37.0811 56.27Z" fill="#E9F1EA"/>
<path d="M77.6895 45.1665V45.4731L77.9734 45.8061L78 45.9725L77.8847 46.0251H77.6895L77.7161 46.3055L77.5742 46.3317L77.6629 46.5858L77.5742 47.4707L77.3258 47.5584L77.237 47.865L77.1572 48.8638L77.0685 49.1354L76.962 49.2493L76.9886 49.4158L76.9354 49.7487L76.7314 50.2481L76.7668 50.5811L76.5983 50.8614L76.5096 51.1681L76.1458 51.3082L76.1991 51.4484L76.3942 51.6675L76.341 51.8339L75.9773 51.72L75.8619 51.9741L76.1458 52.1406L76.0571 52.4472L76.0837 52.64L75.9507 52.5874L75.9152 52.4472L75.8353 52.5524L75.9773 53.1131L75.7466 53.7264L75.4716 54.0856L75.5248 54.2784L75.3563 54.585L75.4095 54.8041L75.1877 55.0581L75.1611 55.2509H74.824L74.8772 55.0581L75.0457 54.9442L74.824 54.7778V54.6376L74.6288 54.8917L74.5134 54.8041L74.5667 55.1107L74.7973 55.1633L74.824 55.5575L75.0191 55.5313L75.099 55.4174L75.2143 55.5313V55.6364L75.099 55.8905V56.0832H74.7352L74.4247 56.276L74.682 57.2222V57.5289L74.3183 57.6691L74.4602 57.7742L74.5134 57.9144L74.1497 58.0283L74.2296 58.1422L74.4868 58.2736L74.3183 58.554V58.7467L74.1497 58.808L74.1231 58.9132L74.2029 59.2198L74.061 59.3075L74.0078 59.8331L73.8924 59.9733L73.9545 60.28L73.5287 60.6918L73.6973 60.8582L73.44 61.2525L73.4134 61.5504L73.4755 61.7169L73.2182 62.3302V62.7507L72.9698 62.9435L72.9964 63.1099L73.0762 63.2238L72.8544 63.6619L72.8278 63.8284L72.5972 64.2752L72.6327 64.4417L72.5439 65.0024L72.3488 65.4667L72.3754 65.6332L72.3221 66.0012L71.985 66.5795L71.7278 66.7722L71.4172 66.9124H71.0535L70.8849 66.8598L70.5744 66.9387L69.8736 66.8861L69.5365 66.9387L69.2792 66.8073L69.0308 66.9387L68.2944 66.8598L68.1259 66.8861L67.9307 66.6408L67.7621 66.9387L67.3718 66.9124L66.8661 66.7459L66.7241 66.7722L66.5822 66.8861L66.1031 66.5532L65.7128 66.08L65.6507 65.5281L65.4821 65.1689V65.0024L65.5442 64.8885L65.2603 64.4942L65.2337 64.2752L65.1184 64.1613L64.8966 63.4691L64.7014 63.2238L64.5595 62.3564L64.3643 62.0848L64.2223 61.3839L63.7965 60.1661L63.6279 59.912L63.3174 58.7467L63.2642 58.1947L63.0424 58.002L62.9005 57.7216L63.0069 57.415L62.7053 56.8367L62.5367 56.1971L62.2795 55.6101L61.9157 55.3035L61.6052 55.6364L60.8689 57.4675H60.6471L60.7624 57.5552H60.931L60.5672 58.4751L60.31 58.6942L60.3366 58.8606L60.4519 58.9395L60.3632 59.2461L60.1946 59.4739L60.168 59.8331L59.9728 60.0259L59.9994 60.3588L59.9462 60.6655L59.7244 61.051L59.5825 61.8045L59.3518 62.0235L59.3252 62.3564L59.1566 62.5842L59.2099 62.9435L59.0413 63.0223L58.9082 62.996L58.7929 63.1625L58.8727 63.329L59.0413 63.4166L58.5977 64.2752L58.6243 64.4679L58.5356 64.7746L58.2251 65.3353L58.1187 65.6332L57.9767 66.3079L57.7549 66.6671L57.613 66.7459L57.4444 66.6671L57.3823 66.5006L57.2492 66.5269L56.9653 66.8861L56.7968 66.8598L56.7081 66.7459L56.5661 66.9387L56.2645 66.8073L55.9274 67L55.6169 66.9124L55.0491 66.9737L54.8539 66.9387L54.6321 66.7459L54.2329 66.8073L53.7538 67L53.5054 66.8335L52.8312 66.8861L52.4674 66.8598L52.4053 66.5532L52.1569 66.5795L52.1835 66.413L51.9884 66.3341H51.8464L51.5891 65.9399L51.6246 65.7734L51.4206 65.5018V65.1075L51.1456 64.5293L51.0834 64.2226L51.1101 63.916L51.1988 63.7758H50.9415V63.329L50.8617 63.1625L50.977 62.8558L50.9415 62.6894L50.5778 62.5842L50.6665 62.3039L50.7463 62.19L50.6931 62.0586L50.5778 61.9709L50.6044 61.8307L50.4979 61.5241L50.2673 61.2525L50.1342 60.28L50.3294 60.1924L50.2406 60.0522L49.9922 59.8594L49.7882 59.6141L49.8237 59.4739L50.0189 59.6667V59.5002L49.6551 59.1147L49.593 58.9395L49.6551 58.8869L49.8237 58.8606L49.5132 58.5802V58.3875L49.5664 58.2473L49.6551 58.1422L49.4511 58.221L49.2559 57.7742V57.6077L49.3446 57.4675L49.0341 56.9419L48.6704 55.5313L48.9809 55.4699L48.6704 55.2246L48.6437 55.0319L48.3599 54.6376L48.5018 54.2784L48.4131 54.1382L48.2445 54.0856L48.2179 53.8053L47.8808 52.859L48.1647 52.64L48.0493 52.4998L47.7388 52.3333L47.5969 51.7463L47.3751 51.3082L47.4017 51.1418L47.517 51.0542L47.3219 50.7826V50.3883L47.2598 50.2481L47.0646 50.0816L47.2065 49.6085L47.1178 49.6961L46.9493 49.7224L46.896 49.6085V49.4158L46.9493 49.3106L46.896 49.1704L46.7541 49.1091L46.7807 48.9427L46.5855 48.3381L46.6388 47.9701L46.5855 47.8037L46.4702 47.7248L46.7009 47.6635L46.6742 47.497L46.5855 47.3919L46.1686 47.1991V46.9976L46.3016 46.9188L46.6388 46.945L46.7275 46.8662L46.7541 46.6997L46.4702 46.5858L46.3371 46.6997L46.1331 46.7523L46.1686 46.5595L46 46.1127V45.9988L46.1331 45.92L46.0266 45.7535V45.4206L46.1065 45.2804L46.275 45.1665L47.8808 45.1139L47.9606 45.4994L48.0493 45.6133L48.1647 45.5607L48.2445 45.2541L48.4131 45.2804L48.6083 45.1139L48.9188 45.1402L48.9809 45.2541L49.176 45.1139L49.5132 45.1665L50.8617 45.1139L51.3673 45.1928L51.8464 45.4731V45.6659L51.8996 45.8061L52.1569 45.9725L52.2634 46.6384L52.3521 46.8049L52.3255 46.9976L52.2368 47.1115L52.5207 47.4182L52.6626 48.084L52.8844 48.4433L52.8578 48.7762L53.1683 49.9765L53.1417 50.143L53.3102 50.3883L53.5054 51.0279V51.1681L53.7272 51.7814L53.9579 53.1657L54.1264 53.3059L54.1797 53.7527L54.1264 53.9192L54.3216 54.1645L54.5168 54.8304L54.6321 55.5575L54.7386 55.8905L54.9071 56.1358L54.8539 56.3373V56.6352L55.2176 56.8893L55.3596 56.7754L55.6169 56.6965L55.812 56.4425L55.954 55.7766L56.0338 55.6364L56.2024 55.5575L56.0959 55.2772L56.4597 54.4974L56.3976 54.1908L56.6016 53.9192L56.5661 53.5862L56.7968 53.1657L56.8234 52.8065L57.1339 52.64L57.0186 52.2808L57.1871 52.0004L57.471 51.0804L57.613 50.8088L57.6396 50.4409L57.9767 49.556L58.0033 49.1704L58.1187 49.0303L58.2872 48.9427L58.2251 48.7762L58.3671 48.4433L58.3138 48.2242L58.509 47.9438L58.6243 47.6372L58.6776 47.1641L58.7663 47.0327L58.9082 46.945L58.7929 46.6384L58.9615 46.4982L58.9082 46.2792L58.9348 46.139L59.2099 45.7535L59.2986 45.4206L59.5204 45.4468L59.8309 45.2278L59.9196 45.2804L59.9462 45.4206L60.0882 45.3592L60.1414 45.1665L60.31 45.1928L60.6205 45.0526L61.2947 45.1665L61.9689 45.0526L62.9271 45.1402L63.2376 45.0876L63.4062 45L63.5126 45.1139L64.0272 45.3329L64.0804 45.4731L64.249 45.4468L64.3288 45.3592H64.4974L64.4707 45.5607L64.7546 45.8937V46.0601L64.6659 46.1916L64.87 46.4194L65.0385 46.7523L65.1184 47.1115V47.4707L65.2869 47.5584V47.7511L65.5708 48.3907V48.5571L65.4821 48.6973L65.6507 48.9427L66.0233 49.8889L65.7926 50.143L65.8813 50.2481L66.1564 50.2744L66.5822 51.72L66.4136 52.0267H66.7241L66.7774 52.3859L66.9459 52.8065L66.7774 53.1131H67.0879L67.2032 53.779L67.567 54.585L67.5403 54.7778L67.6202 55.3035L67.8154 55.5575L67.9041 55.8642L67.9307 56.7491H68.2944L68.4364 56.863L68.6315 56.7754L68.8356 56.5038L69.0574 55.8292L69.1727 55.724L69.1372 55.5838L69.2792 55.3035L69.2259 55.137L69.3945 54.4448L69.4832 54.3309L69.6518 54.2784L69.4832 53.9717L69.6518 53.6388L69.7849 53.5249L69.7316 53.3584L69.9002 53.0518L69.847 52.8065L69.9534 52.6926L70.0688 52.2545L70.2107 52.1931L70.1575 51.8865L70.326 51.8077L70.6277 51.9128L70.6898 51.7814L70.5212 51.5273L70.2639 51.6675L70.2373 51.3345L70.2905 51.0016L70.4325 50.7212L70.6277 50.5022L70.6011 50.0291L70.9737 49.0303L71.0269 48.6711L71.0003 48.5046L71.1067 48.3907L71.1955 48.0315L71.3108 47.9176V47.6109L71.5592 46.6384V46.4456L71.781 46.2792L71.7278 45.8937L72.0915 45.3943L72.3488 45.1665L72.4907 45.1139L73.023 45.1665L73.3867 45L73.6973 45.1139L74.0078 45.0526L74.1497 45.0876L74.2562 45.2278L74.5134 45.0526L74.8506 45L75.1877 45.0876L75.303 45.1665L75.3563 45.3067L75.9507 45.0526L76.1192 45.0263L76.5628 45.1402L76.7047 45.2541L77.3524 45.1139L77.6895 45.1665Z" fill="#E9F1EA"/>
</svg>
